<svg version="1.1" viewBox="0 0 144 48" xmlns="http://www.w3.org/2000/svg">
 <g transform="translate(5.3096 5.7194)">
  <path d="m127.22-5.7193h-121.06c-0.4412 0-0.8772 0-1.3173 0.0024-0.36844 0.0024-0.73391 0.00937-1.1059 0.01524-0.80805 0.00948-1.6142 0.080372-2.4114 0.21205-0.79612 0.13455-1.5673 0.38821-2.2875 0.7524-0.71928 0.36727-1.3765 0.84451-1.9478 1.4144-0.57433 0.56828-1.0531 1.2251-1.4178 1.9453-0.36576 0.71873-0.61938 1.4889-0.7521 2.284-0.13398 0.79405-0.20608 1.5972-0.21564 2.4024-0.011167 0.36792-0.012347 0.73706-0.018231 1.105v27.737c0.00588 0.3726 0.00706 0.7335 0.018231 1.1062 0.00957 0.8051 0.081665 1.6083 0.21564 2.4023 0.13235 0.7955 0.38599 1.5662 0.7521 2.2852 0.36459 0.7178 0.84341 1.372 1.4178 1.9371 0.56917 0.5725 1.2268 1.05 1.9478 1.4145 0.72015 0.3651 1.4912 0.6203 2.2875 0.7569 0.79737 0.1307 1.6034 0.2016 2.4114 0.2122 0.37195 0.0082 0.73742 0.0128 1.1059 0.0128 0.4401 0.0024 0.8761 0.0024 1.3173 0.0024h121.06c0.432 0 0.872 0 1.304-0.0024 0.367 0 0.743-0.0046 1.11-0.0128 0.806-0.0101 1.611-0.081 2.406-0.2122 0.799-0.1375 1.573-0.3927 2.297-0.7569 0.72-0.3647 1.377-0.8422 1.946-1.4145 0.573-0.5673 1.052-1.221 1.422-1.9371 0.363-0.7196 0.614-1.4901 0.745-2.2852 0.134-0.7941 0.208-1.5971 0.223-2.4023 5e-3 -0.3727 5e-3 -0.7336 5e-3 -1.1062 9e-3 -0.436 9e-3 -0.8696 9e-3 -1.3126v-25.114c0-0.4395 0-0.8754-9e-3 -1.3102 0-0.36793 0-0.73707-5e-3 -1.105-0.015-0.80522-0.089-1.6082-0.223-2.4024-0.131-0.79459-0.382-1.5647-0.745-2.284-0.743-1.4435-1.921-2.6185-3.368-3.3598-0.724-0.3633-1.498-0.6169-2.297-0.7524-0.795-0.13226-1.6-0.20317-2.406-0.21211-0.367-0.00586-0.743-0.012888-1.11-0.015228-0.432-0.0024-0.872-0.0024-1.304-0.0024z"/>
  <path d="m4.8526 41.231c-0.3666 0-0.72439-0.0047-1.0882-0.0129-0.75358-0.0098-1.5054-0.0752-2.2493-0.1957-0.69363-0.1191-1.3656-0.3407-1.9937-0.6575-0.62233-0.3141-1.19-0.726-1.6811-1.2199-0.49827-0.4881-0.9131-1.0542-1.228-1.6758-0.31843-0.6257-0.5388-1.2964-0.65343-1.9887-0.1238-0.7438-0.19078-1.496-0.20036-2.25-0.00763-0.253-0.01762-1.0957-0.01762-1.0957v-27.721s0.01064-0.82973 0.01768-1.0735c0.00917-0.75278 0.07576-1.5038 0.19919-2.2465 0.11485-0.69417 0.33539-1.3668 0.65398-1.9945 0.3138-0.62122 0.72633-1.1877 1.2216-1.6775 0.49471-0.49447 1.0641-0.90849 1.6875-1.227 0.62665-0.31574 1.2973-0.53577 1.9896-0.65273 0.74632-0.12172 1.5007-0.18753 2.2569-0.19687l1.0858-0.01465h123.67l1.099 0.01524c0.749 0.00888 1.497 0.0741 2.236 0.19511 0.7 0.11842 1.377 0.33999 2.011 0.65742 1.249 0.64181 2.265 1.6572 2.906 2.9039 0.314 0.62341 0.531 1.2905 0.644 1.9787 0.125 0.7488 0.195 1.5057 0.209 2.2646 4e-3 0.33984 4e-3 0.70488 4e-3 1.0682 9e-3 0.45 9e-3 0.8783 9e-3 1.3101v25.114c0 0.436 0 0.8614-9e-3 1.2903 0 0.3902 0 0.7477-5e-3 1.1156-0.014 0.7454-0.083 1.4888-0.205 2.2242-0.113 0.6973-0.332 1.3732-0.65 2.004-0.317 0.6149-0.73 1.1761-1.222 1.6628-0.492 0.4966-1.061 0.9109-1.684 1.227-0.632 0.3192-1.309 0.5416-2.008 0.6598-0.743 0.1211-1.495 0.1866-2.249 0.1957-0.352 0.0082-0.721 0.0129-1.08 0.0129l-1.304 0.0023z"/>
  <g fill="#fff">
   <path d="m24.497 18.641c0.0129-1.0016 0.2797-1.9837 0.7755-2.8548 0.4959-0.8712 1.2046-1.6031 2.0603-2.1277-0.5436-0.7742-1.2607-1.4113-2.0945-1.8608-0.8337-0.4494-1.761-0.6988-2.7083-0.7284-2.0208-0.2115-3.9798 1.2058-5.0095 1.2058-1.0497 0-2.6351-1.1848-4.3424-1.1498-1.1043 0.0356-2.1805 0.3558-3.1238 0.9295-0.9433 0.5737-1.7215 1.3812-2.2588 2.344-2.3273 4.0181-0.5913 9.9233 1.6381 13.171 1.1154 1.5904 2.4189 3.3669 4.1247 3.3039 1.6691-0.069 2.2925-1.0613 4.3073-1.0613 1.9961 0 2.581 1.0613 4.3213 1.0213 1.7911-0.029 2.9195-1.5975 3.9958-3.203 0.8014-1.1332 1.4181-2.3857 1.8272-3.711-1.0405-0.4389-1.9285-1.1735-2.5532-2.1123-0.6247-0.9387-0.9585-2.0401-0.9597-3.1667z"/>
   <path d="m21.209 8.9338c0.9766-1.1691 1.4577-2.6717 1.3412-4.1887-1.492 0.1562-2.8701 0.8673-3.8599 1.9915-0.4839 0.5492-0.8545 1.1881-1.0907 1.8802-0.2362 0.6922-0.3332 1.4239-0.2856 2.1535 0.7463 0.0076 1.4845-0.1537 2.1592-0.4718 0.6747-0.3181 1.2682-0.7847 1.7358-1.3647z"/>
   <path d="m45.596 26.848h-5.696l-1.3679 4.0277h-2.4126l5.3952-14.902h2.5066l5.3952 14.902h-2.4538zm-5.1061-1.8586h4.5151l-2.2258-6.5367h-0.0623z"/>
   <path d="m61.068 25.444c0 3.3762-1.8122 5.5453-4.5468 5.5453-0.6927 0.0362-1.3816-0.1229-1.9879-0.4591-0.6062-0.3362-1.1053-0.8358-1.44-1.4417h-0.0518v5.3813h-2.2363v-14.459h2.1647v1.807h0.0411c0.3501-0.6029 0.8576-1.0999 1.4685-1.4382 0.6109-0.3382 1.3023-0.5049 2.0006-0.4825 2.7651 0 4.5879 2.1797 4.5879 5.5465zm-2.2987 0c0-2.1996-1.1399-3.6457-2.8791-3.6457-1.7087 0-2.858 1.4766-2.858 3.6457 0 2.1891 1.1493 3.6551 2.858 3.6551 1.7392 0 2.8791-1.4355 2.8791-3.6551z"/>
   <path d="m73.059 25.444c0 3.3762-1.8121 5.5453-4.5467 5.5453-0.6927 0.0362-1.3816-0.123-1.9879-0.4591-0.6062-0.3362-1.1053-0.8358-1.44-1.4417h-0.0518v5.3813h-2.2363v-14.459h2.1646v1.807h0.0411c0.3502-0.6029 0.8577-1.0999 1.4685-1.4382 0.6109-0.3382 1.3023-0.5049 2.0006-0.4825 2.7652 0 4.5879 2.1797 4.5879 5.5465zm-2.2986 0c0-2.1996-1.1399-3.6457-2.8792-3.6457-1.7087 0-2.858 1.4766-2.858 3.6457 0 2.1891 1.1493 3.6551 2.858 3.6551 1.7393 0 2.8792-1.4355 2.8792-3.6551z"/>
   <path d="m80.985 26.724c0.1657 1.4778 1.6053 2.448 3.5725 2.448 1.885 0 3.2411-0.9703 3.2411-2.3027 0-1.1567-0.8179-1.8492-2.7545-2.3238l-1.9367-0.4653c-2.744-0.6609-4.0179-1.9406-4.0179-4.0172 0-2.5711 2.2469-4.3371 5.4375-4.3371 3.1576 0 5.3223 1.766 5.3952 4.3371h-2.2575c-0.1352-1.4871-1.3679-2.3847-3.1695-2.3847-1.8015 0-3.0342 0.9082-3.0342 2.23 0 1.0536 0.7873 1.6735 2.7134 2.148l1.6464 0.4032c3.066 0.723 4.3399 1.9512 4.3399 4.1308 0 2.7879-2.2269 4.534-5.7689 4.534-3.314 0-5.5515-1.7051-5.696-4.4004z"/>
   <path d="m94.986 17.44v2.5711h2.072v1.766h-2.072v5.9895c0 0.9304 0.415 1.364 1.326 1.364 0.246-0.0043 0.491-0.0215 0.735-0.0516v1.7555c-0.409 0.0763-0.825 0.1108-1.242 0.1031-2.2055 0-3.0657-0.8262-3.0657-2.9332v-6.2273h-1.5841v-1.766h1.5841v-2.5711z"/>
   <path d="m98.258 25.444c0-3.4184 2.019-5.5664 5.167-5.5664 3.159 0 5.169 2.148 5.169 5.5664 0 3.4277-1.999 5.5664-5.169 5.5664-3.168 0-5.167-2.1387-5.167-5.5664zm8.057 0c0-2.3449-1.078-3.7289-2.89-3.7289s-2.888 1.3945-2.888 3.7289c0 2.3543 1.076 3.7277 2.888 3.7277s2.89-1.3734 2.89-3.7277z"/>
   <path d="m110.44 20.012h2.133v1.8492h0.052c0.144-0.5775 0.484-1.0879 0.961-1.4454 0.477-0.3574 1.063-0.5402 1.66-0.5175 0.257-9e-4 0.514 0.0271 0.766 0.0833v2.0859c-0.326-0.0992-0.665-0.1447-1.005-0.1348-0.325-0.0131-0.649 0.044-0.949 0.1675-0.301 0.1234-0.571 0.3103-0.793 0.5478-0.221 0.2375-0.388 0.5199-0.49 0.8279s-0.135 0.6343-0.098 0.9564v6.4442h-2.237z"/>
   <path d="m126.32 27.685c-0.301 1.9723-2.227 3.3258-4.692 3.3258-3.169 0-5.136-2.1176-5.136-5.5148 0-3.4079 1.978-5.618 5.042-5.618 3.015 0 4.91 2.0648 4.91 5.359v0.764h-7.695v0.1348c-0.035 0.3998 0.015 0.8026 0.147 1.1816 0.133 0.3791 0.345 0.7256 0.622 1.0167 0.277 0.291 0.614 0.5199 0.986 0.6715 0.373 0.1516 0.774 0.2223 1.176 0.2075 0.529 0.0494 1.059-0.0726 1.512-0.348 0.454-0.2753 0.806-0.6892 1.004-1.1801zm-7.56-3.2426h5.447c0.02-0.3595-0.035-0.7192-0.161-1.0567-0.126-0.3374-0.32-0.6453-0.571-0.9042s-0.553-0.4633-0.887-0.6004-0.693-0.2038-1.054-0.1961c-0.364-0.0021-0.725 0.0676-1.062 0.2053s-0.643 0.3406-0.901 0.5969c-0.258 0.2564-0.463 0.5612-0.602 0.8968-0.139 0.3355-0.21 0.6953-0.209 1.0585z"/>
   <path d="m40.209 4.7578c0.4689-0.0335 0.9394 0.0371 1.3775 0.2068 0.4382 0.1697 0.8331 0.4343 1.1563 0.7747 0.3232 0.3403 0.5667 0.748 0.7128 1.1935 0.146 0.4455 0.1912 0.9178 0.132 1.3828 0 2.2875-1.2397 3.6024-3.3786 3.6024h-2.5935v-7.1602zm-1.4783 6.1476h1.3538c0.335 0.02 0.6703-0.0348 0.9814-0.1603 0.3111-0.1256 0.5902-0.3187 0.8171-0.5654 0.2268-0.2467 0.3956-0.5407 0.4941-0.8606 0.0985-0.32 0.1243-0.6578 0.0753-0.9889 0.0454-0.3298 0.0171-0.6655-0.083-0.9831-0.1-0.3176-0.2692-0.6092-0.4955-0.8539s-0.5041-0.4365-0.8135-0.5616c-0.3093-0.1251-0.6426-0.1804-0.9759-0.1619h-1.3538z"/>
   <path d="m44.848 9.2139c-0.0341-0.3551 0.0067-0.7134 0.1196-1.0519s0.2956-0.6497 0.5362-0.9137c0.2406-0.2639 0.5338-0.4749 0.861-0.6192 0.3271-0.1443 0.6809-0.2189 1.0386-0.2189s0.7115 0.0746 1.0386 0.2189c0.3272 0.1443 0.6205 0.3553 0.8611 0.6192 0.2406 0.264 0.4232 0.5752 0.5361 0.9137s0.1537 0.6968 0.1196 1.0519c0.0347 0.3554-0.0055 0.7142-0.1182 1.0532-0.1126 0.3391-0.2951 0.6509-0.5358 0.9154-0.2406 0.2644-0.5341 0.4758-0.8616 0.6205-0.3275 0.1446-0.6816 0.2193-1.0398 0.2193-0.3581 0-0.7123-0.0747-1.0398-0.2193-0.3275-0.1447-0.621-0.3561-0.8616-0.6205-0.2407-0.2645-0.4232-0.5763-0.5358-0.9154-0.1126-0.339-0.1529-0.6978-0.1182-1.0532zm4.0108 0c0-1.1713-0.5276-1.8563-1.4536-1.8563-0.9296 0-1.4525 0.685-1.4525 1.8563 0 1.1806 0.523 1.8603 1.4525 1.8603 0.926 0 1.4537-0.6844 1.4537-1.8603z"/>
   <path d="m56.752 11.918h-1.1093l-1.1199-3.9797h-0.0846l-1.1153 3.9797h-1.0988l-1.4936-5.4035h1.0847l0.9707 4.1232h0.0799l1.114-4.1232h1.026l1.114 4.1232h0.0846l0.966-4.1232h1.0694z"/>
   <path d="m59.496 6.5145h1.0294v0.8584h0.0799c0.1356-0.3083 0.3642-0.5668 0.6541-0.7394 0.2898-0.1725 0.6265-0.2506 0.9629-0.2233 0.2637-0.0198 0.5284 0.0198 0.7746 0.116 0.2463 0.0961 0.4676 0.2462 0.6477 0.4392 0.1802 0.193 0.3144 0.424 0.3929 0.6758 0.0785 0.2517 0.0991 0.5179 0.0604 0.7787v3.498h-1.0694v-3.2302c0-0.8683-0.3784-1.3002-1.1693-1.3002-0.179-0.0083-0.3577 0.0221-0.5238 0.0891-0.1662 0.067-0.3158 0.169-0.4387 0.2991-0.1229 0.13-0.2161 0.285-0.2733 0.4544s-0.077 0.3491-0.0581 0.5267v3.1612h-1.0694z"/>
   <path d="m65.802 4.4051h1.0694v7.5129h-1.0694z"/>
   <path d="m68.358 9.2138c-0.0341-0.3551 0.0067-0.7134 0.1196-1.0519 0.113-0.3385 0.2956-0.6497 0.5363-0.9137 0.2406-0.264 0.5339-0.4749 0.8611-0.6192 0.3271-0.1443 0.6809-0.2189 1.0387-0.2189 0.3577 0 0.7115 0.0746 1.0387 0.2189 0.3271 0.1443 0.6204 0.3552 0.8611 0.6192 0.2406 0.264 0.4232 0.5752 0.5362 0.9137 0.1129 0.3385 0.1537 0.6968 0.1196 1.0519 0.0347 0.3555-0.0056 0.7143-0.1182 1.0533-0.1127 0.3391-0.2952 0.6508-0.5359 0.9153s-0.5342 0.4759-0.8617 0.6205-0.6817 0.2194-1.0398 0.2194c-0.3582 0-0.7124-0.0748-1.0399-0.2194s-0.621-0.356-0.8617-0.6205c-0.2406-0.2645-0.4232-0.5762-0.5358-0.9153-0.1127-0.339-0.153-0.6978-0.1183-1.0533zm4.0108 0c0-1.1712-0.5277-1.8562-1.4537-1.8562-0.9295 0-1.4524 0.685-1.4524 1.8563 0 1.1806 0.5229 1.8603 1.4524 1.8603 0.9261 0 1.4537-0.6844 1.4537-1.8604z"/>
   <path d="m74.595 10.39c0-0.9727 0.7262-1.5334 2.0154-1.6131l1.4677-0.0844v-0.4664c0-0.5707-0.3784-0.8929-1.1093-0.8929-0.597 0-1.0106 0.2185-1.1293 0.6006h-1.0354c0.1093-0.9282 0.9848-1.5235 2.214-1.5235 1.3585 0 2.1247 0.6744 2.1247 1.8158v3.692h-1.0294v-0.7593h-0.0846c-0.1718 0.2723-0.4129 0.4944-0.6989 0.6435-0.2859 0.149-0.6064 0.2197-0.9287 0.2049-0.2275 0.0235-0.4574-7e-4 -0.6749-0.0711-0.2176-0.0704-0.4179-0.1855-0.588-0.3379-0.1702-0.1524-0.3065-0.3386-0.4001-0.5467-0.0935-0.2081-0.1423-0.4334-0.1432-0.6615zm3.4831-0.4617v-0.4518l-1.3232 0.0844c-0.7462 0.0498-1.0847 0.3029-1.0847 0.7793 0 0.4863 0.4231 0.7693 1.0048 0.7693 0.1705 0.0172 0.3427 1e-4 0.5063-0.0504 0.1637-0.0506 0.3155-0.1334 0.4464-0.2436s0.2383-0.2455 0.3156-0.398c0.0774-0.1524 0.1233-0.3188 0.1348-0.4892z"/>
   <path d="m80.549 9.2139c0-1.7074 0.8802-2.7891 2.2493-2.7891 0.3386-0.0155 0.6747 0.0654 0.969 0.2332 0.2943 0.1679 0.5345 0.4158 0.6927 0.7148h0.0799v-2.9677h1.0694v7.5129h-1.0247v-0.8537h-0.0846c-0.1705 0.297-0.4191 0.5418-0.719 0.708-0.3 0.1661-0.6398 0.2473-0.9827 0.2347-1.3785 1e-4 -2.2493-1.0816-2.2493-2.7931zm1.1047 0c0 1.1461 0.5418 1.8357 1.4478 1.8357 0.9014 0 1.4584-0.6996 1.4584-1.831 0-1.1262-0.5629-1.8358-1.4584-1.8358-0.9002 0-1.4478 0.6944-1.4478 1.8311z"/>
   <path d="m90.033 9.2139c-0.0341-0.3551 0.0067-0.7134 0.1196-1.0519s0.2955-0.6497 0.5361-0.9137c0.2406-0.2639 0.5339-0.4749 0.8611-0.6192 0.3271-0.1443 0.6809-0.2189 1.0386-0.2189s0.7115 0.0746 1.0386 0.2189c0.3272 0.1443 0.6204 0.3553 0.861 0.6192 0.2411 0.264 0.4231 0.5752 0.5361 0.9137s0.154 0.6968 0.12 1.0519c0.034 0.3554-6e-3 0.7142-0.118 1.0532-0.113 0.3391-0.296 0.6509-0.5363 0.9154-0.2406 0.2644-0.5341 0.4758-0.8616 0.6205-0.3275 0.1446-0.6817 0.2193-1.0398 0.2193-0.3582 0-0.7124-0.0747-1.0398-0.2193-0.3275-0.1447-0.621-0.3561-0.8616-0.6205-0.2407-0.2645-0.4232-0.5763-0.5358-0.9154-0.1127-0.339-0.1529-0.6978-0.1182-1.0532zm4.0108 0c0-1.1713-0.5276-1.8563-1.4536-1.8563-0.9296 0-1.4525 0.685-1.4525 1.8563 0 1.1806 0.5229 1.8603 1.4525 1.8603 0.926 0 1.4536-0.6844 1.4536-1.8603z"/>
   <path d="m96.579 6.5145h1.029v0.8584h0.08c0.135-0.3083 0.364-0.5668 0.654-0.7394 0.29-0.1725 0.626-0.2506 0.963-0.2233 0.264-0.0198 0.528 0.0198 0.775 0.116 0.246 0.0961 0.467 0.2462 0.647 0.4392s0.315 0.424 0.393 0.6758c0.079 0.2517 0.099 0.5179 0.061 0.7787v3.498h-1.07v-3.2302c0-0.8683-0.378-1.3002-1.169-1.3002-0.179-0.0083-0.358 0.0221-0.524 0.0891s-0.316 0.169-0.439 0.2991c-0.123 0.13-0.216 0.285-0.273 0.4544s-0.077 0.3491-0.058 0.5267v3.1612h-1.069z"/>
   <path d="m107.22 5.1691v1.3699h1.174v0.8983h-1.174v2.7785c0 0.566 0.234 0.8139 0.766 0.8139 0.137-5e-4 0.273-0.0087 0.408-0.0246v0.8882c-0.192 0.0343-0.386 0.0525-0.582 0.0545-1.189 0-1.662-0.4172-1.662-1.459v-3.0516h-0.861v-0.8982h0.861v-1.3699z"/>
   <path d="m109.86 4.4051h1.06v2.9777h0.085c0.142-0.3112 0.377-0.5711 0.672-0.7443 0.296-0.1732 0.638-0.2513 0.98-0.2236 0.262-0.0143 0.524 0.0294 0.768 0.1278 0.243 0.0985 0.462 0.2493 0.64 0.4417s0.312 0.4217 0.391 0.6714c0.079 0.2498 0.102 0.5139 0.067 0.7735v3.4887h-1.071v-3.2256c0-0.8631-0.403-1.3002-1.158-1.3002-0.184-0.015-0.369 0.0102-0.542 0.0738-0.173 0.0637-0.33 0.1643-0.46 0.2948-0.13 0.1304-0.23 0.2877-0.292 0.4606-0.063 0.173-0.087 0.3575-0.071 0.5407v3.1559h-1.069z"/>
   <path d="m120.76 10.459c-0.145 0.4939-0.46 0.921-0.889 1.2068s-0.945 0.412-1.459 0.3565c-0.357 0.0094-0.711-0.0588-1.039-0.1998-0.328-0.1411-0.621-0.3516-0.86-0.6169-0.238-0.2654-0.415-0.5793-0.519-0.9199-0.105-0.3405-0.133-0.6997-0.085-1.0525-0.047-0.3538-0.018-0.7137 0.086-1.0554 0.104-0.3416 0.281-0.6569 0.518-0.9246 0.236-0.2677 0.528-0.4815 0.855-0.6269 0.327-0.1455 0.682-0.2192 1.04-0.2161 1.507 0 2.417 1.0272 2.417 2.724v0.3721h-3.826v0.0598c-0.017 0.1982 8e-3 0.3978 0.073 0.5859 0.065 0.1881 0.169 0.3606 0.305 0.5063 0.136 0.1458 0.301 0.2616 0.484 0.3401s0.381 0.1179 0.581 0.1157c0.256 0.0306 0.515-0.0154 0.744-0.132 0.23-0.1167 0.419-0.2987 0.545-0.5231zm-3.761-1.7414h2.737c0.013-0.1813-0.012-0.3635-0.073-0.5348-0.061-0.1712-0.158-0.3278-0.283-0.4596-0.126-0.1319-0.278-0.236-0.446-0.3058-0.169-0.0699-0.35-0.1038-0.532-0.0996-0.185-0.0023-0.369 0.0323-0.54 0.1019-0.171 0.0695-0.327 0.1725-0.458 0.303-0.131 0.1304-0.234 0.2857-0.303 0.4565-0.07 0.1709-0.105 0.354-0.102 0.5384z"/>
  </g>
 </g>
</svg>
