<svg width="141" height="32" viewBox="0 0 141 32" fill="none" xmlns="http://www.w3.org/2000/svg">
<path d="M0 31.9635L28.575 0C30.2181 1.82648 31.7004 3.48858 33.022 4.96804C34.3436 6.46575 35.8617 8.16438 37.5762 10.0822C39.2907 12 41.0409 13.9543 42.8269 15.9452C44.6128 17.9361 46.363 19.8904 48.0775 21.8082C49.792 23.726 51.3101 25.4247 52.6495 26.9224C53.989 28.4201 55.4713 30.0822 57.1144 31.9452H50.3635L28.575 7.6347L11.2871 26.9954H39.0049L43.4698 31.9635H0ZM35.183 0H62.5436C64.3296 0 65.8655 0.365297 67.1692 1.11416C68.4551 1.86301 69.5088 2.81279 70.3125 3.96347C71.3483 5.36986 71.9198 6.90411 71.9913 8.60274C72.0627 10.2831 71.7412 11.8721 71.009 13.3333C70.2768 14.7945 69.1873 16.0183 67.7229 17.0046C66.2584 17.9909 64.526 18.484 62.5079 18.484H58.4003C58.4896 18.5753 58.7217 18.8311 59.0968 19.2511C59.4718 19.6712 59.9183 20.2192 60.4541 20.8767C60.9899 21.5342 61.5971 22.2466 62.2579 23.0502C62.9365 23.8356 63.5973 24.6575 64.2939 25.4612L69.741 31.9452H63.7045C62.5436 30.6301 61.4185 29.3516 60.3291 28.1096C59.2396 26.8676 58.1859 25.6438 57.1322 24.4566L47.4524 13.4977H63.5259C64.5975 13.3516 65.5262 12.8767 66.2941 12.0731C67.0621 11.2694 67.455 10.3196 67.455 9.22374C67.455 8.60274 67.33 8.0548 67.0799 7.52511C66.8299 7.0137 66.4906 6.55708 66.0441 6.17352C65.6155 5.78995 65.1333 5.49772 64.5975 5.27854C64.0617 5.05936 63.508 4.94977 62.9544 4.94977H39.6479L35.183 0Z" fill="white"/>
<path d="M75.5811 31.9635V0H80.7246V31.9635H75.5811Z" fill="white"/>
<path d="M112.425 0.0371094C112.961 0.621584 113.872 1.62615 115.175 3.05081C116.461 4.47546 117.979 6.15583 119.712 8.0919C121.444 10.028 123.301 12.1102 125.284 14.3385C127.284 16.5668 129.249 18.7768 131.195 20.9503C133.142 23.1239 134.981 25.1878 136.696 27.1239C138.41 29.0599 139.839 30.6855 141 31.9823H134.213C134.178 31.9458 133.856 31.5805 133.213 30.8682C132.57 30.1558 131.749 29.2243 130.713 28.0919C129.677 26.9595 128.534 25.6627 127.23 24.2198C125.945 22.7768 124.605 21.2974 123.266 19.7631C121.908 18.2472 120.587 16.7494 119.301 15.3065C118.015 13.8636 116.854 12.5668 115.836 11.4526C114.818 10.3202 113.693 9.05994 112.443 7.65355L95.1549 27.0143H122.873L127.338 31.9823H83.8499L112.425 0.0371094Z" fill="white"/>
</svg>
