<svg version="1.1" width="157" height="30" viewBox="0 0 157 30" xmlns="http://www.w3.org/2000/svg" xmlns:xlink="http://www.w3.org/1999/xlink">
 <path d="m106.91 0v10.957h-0.0937c-0.46552-0.73056-1.2096-1.3696-2.1406-1.8262-0.93103-0.45658-1.9563-0.63867-2.9805-0.63867-1.2102 0-2.2331 0.18357-3.1641 0.54883-0.93102 0.36525-1.7703 0.91209-2.4219 1.6426-0.65172 0.73048-1.116 1.5518-1.4883 2.4648-0.37241 1.0045-0.55859 2.0097-0.55859 3.1055 0 1.0958 0.18618 2.1005 0.55859 3.0137 0.2792 0.91315 0.83656 1.7344 1.4883 2.4648 0.65161 0.73058 1.4909 1.2793 2.4219 1.6445 0.93092 0.36524 2.0469 0.54688 3.1641 0.54688 1.0241 0 2.0494-0.1821 2.9805-0.63867 0.93102-0.45658 1.6753-1.0044 2.2344-1.8262h0.0918v2.0996h2.7012v-23.559zm-80.65 0.083984c-0.92518 0.029651-1.831 0.37252-2.5234 1.0117l-0.1875 0.18359-0.37109 0.27344c-1.4895 1.1871-3.7247 1.0963-5.1211-0.27344v-0.091797c-0.46551-0.45657-1.1159-0.82323-1.7676-1.0059-0.0931 0-0.27994-0.089844-0.37305-0.089844h-1.4902c-0.0931 0-0.18619-0.0014701-0.2793 0.089844h-0.18555c-0.0931 0-0.18619 0.091797-0.2793 0.091797 0 0-0.09375 4.8278e-4 -0.09375 0.091797-0.0931 0-0.1862 0.091797-0.2793 0.091797 0 0-0.0918-0.00147-0.0918 0.089844-0.0931 0.091314-0.18619 0.09228-0.2793 0.18359 0 0-0.09375 4.8278e-4 -0.09375 0.091797-0.0931 0.091313-0.1862 0.090326-0.2793 0.18164l-0.09375 0.091797-0.18555 0.18359-0.37305 0.27344c-1.4895 1.1871-3.724 1.0963-5.0273-0.27344 0 0-0.091797-4.819e-4 -0.091797-0.091797l-0.1875-0.18359c-0.55858-0.45657-1.2103-0.8208-1.9551-0.91211h-1.6758c0 0.091314-0.092445 0.090327-0.18555 0.18164h-0.09375c-0.46549 0.18263-0.93035 0.36521-1.3027 0.73047l-0.09375 0.091797-0.2793 0.27344c-0.37239 0.36526-0.55795 0.82224-0.74414 1.1875 0 0.091315-0.09375 0.18212-0.09375 0.27344 0 0.091305-0.091797 0.1826-0.091797 0.36523-0.093098 0.6392-0.094399 1.2788 0.091797 1.918 0 0.091305 0.09375 0.18212 0.09375 0.27344v0.091797c0 0.091315 0.09375 0.18212 0.09375 0.27344 0.093097 0.091315 0.09245 0.1826 0.18555 0.36523 0.1862 0.091315 0.37175 0.27392 0.46484 0.36523l0.1875 0.18359 0.18555 0.18164c1.3965 1.3697 1.3958 3.744-0.09375 5.2051-0.1862 0.18257-0.4655 0.45806-0.55859 0.64062-0.093097 0.09134-0.092449 0.18267-0.18555 0.36524v0.08984c-0.093097 0.09134-0.09245 0.18416-0.18555 0.27539v0.08984c0 0.09134-0.09375 0.18406-0.09375 0.27539v0.08984c0 0.09134-6.5281e-4 0.18406-0.09375 0.27539v1.3691c0 0.09123 6.528e-4 0.1821 0.09375 0.27344v0.0918c0.1862 0.63914 0.5586 1.2784 1.1172 1.8262 1.4896 1.4611 1.4896 3.8359 0 5.2969l-0.09375 0.08984-0.18555 0.18359v0.0918c-0.093093 0.09134-0.18555 0.1821-0.18555 0.27344 0 0-6.5179e-4 0.0918-0.09375 0.0918-0.093097 0.09134-0.09245 0.1821-0.18555 0.27344l-0.09375 0.0918c0 0.09123-0.09375 0.0903-0.09375 0.18164s-0.091797 0.09226-0.091797 0.18359c0 0.09134-6.518e-4 0.09041-0.09375 0.18164-0.18619 0.36533-0.2793 0.82216-0.2793 1.1875v0.73047c0.093098 0.2739 0.093102 0.5479 0.2793 0.73047 0 0.09134 0.09375 0.18359 0.09375 0.18359s-0.0013 0.08984 0.091797 0.08984c0 0.09123 0.09375 0.18406 0.09375 0.27539 0 0 6.518e-4 0.08984 0.09375 0.08984 0.093097 0.18257 0.1862 0.2739 0.2793 0.36524 0 0-0.0013 0.0918 0.091797 0.0918 0 0 6.569e-4 0.0918 0.09375 0.0918 0 0.09134 0.09375 0.0918 0.09375 0.0918l0.091797 0.08984c0.093092 0.09134 0.1875 0.09226 0.1875 0.18359l0.091797 0.0918s0.09375-0.0015 0.09375 0.08984c0.093092 0.09134 0.1862 0.18359 0.2793 0.18359 0 0 0.09375 4.57e-4 0.09375 0.0918 0.093092 0.09123 0.1862 0.0903 0.2793 0.18164h0.091797c0.093102 0.09134 0.18685 0.0918 0.37305 0.0918 0.093102 0 0.27995 0.0918 0.37305 0.0918h0.091797c0.093092 0 0.1862-0.0014 0.2793 0.08984h0.83789c0.2793 0 0.4668-0.08984 0.74609-0.08984h0.091797c0.093102 0 0.18619-0.0918 0.2793-0.0918h0.09375c0.093102 0 0.18619-0.0918 0.2793-0.0918h0.09375c0.18619-0.09134 0.4642-0.2739 0.65039-0.36524l0.2793-0.27344 0.09375-0.0918c1.4896-1.5524 3.9109-1.5524 5.4004 0 1.6757 1.735 4.4681 1.6442 6.0508-0.27344 1.1171-1.3696 1.1171-3.3789 0-4.8398-1.4895-1.8263-4.1888-1.9181-5.7715-0.45703l-0.1875 0.18359-0.37109 0.27344c-1.4895 1.187-3.7246 1.0963-5.1211-0.27344l-0.18555-0.18359-0.2793-0.36523c-1.2103-1.4611-1.1172-3.6518 0.2793-5.0215 0.83788-0.73048 1.209-1.7359 1.209-2.7402v-0.27344c0-0.91315-0.37241-1.8256-1.1172-2.4648 0-0.09134-0.091797-0.09226-0.091797-0.18359l-0.2793-0.36523c-1.2103-1.461-1.1172-3.6518 0.2793-5.0215l0.091797-0.091797 0.09375-0.091797c1.4896-1.5523 3.9109-1.5523 5.4004 0l0.0918 0.091797 0.09375 0.091797 0.18555 0.18164c0.0931 0 0.0944 0.091797 0.1875 0.091797s0.09255 0.091797 0.18555 0.091797c0.0931 0 0.09244 0.089844 0.18555 0.089844 0.0931 0 0.0944 0.091797 0.1875 0.091797s0.09244 0.091797 0.18555 0.091797c0.0931 0 0.09244 0.091797 0.18555 0.091797 0.0931 0 0.0944-0.00147 0.1875 0.089844 0.0931 0 0.09244 4.819e-4 0.18555 0.091797h1.582c0.0931 0 0.1862-4.819e-4 0.2793-0.091797h0.1875c0.0931 0 0.18619-0.089844 0.2793-0.089844h0.0918c0.0931 0 0.18684-0.092289 0.37305-0.18359 0.3723-0.18263 0.74413-0.45653 1.0234-0.73047l0.09375-0.091797c1.4895-1.5523 3.9089-1.5523 5.3984 0 1.5827 1.8263 4.4695 1.7359 5.959-0.18164 1.1172-1.3697 1.1172-3.3783 0-4.748-0.83787-1.0273-2.0585-1.5069-3.2481-1.4688zm117.14 0.28125v23.012h2.793v-7.4883l6.7969 7.4883h4.002l-7.4473-7.8535 6.7949-6.5742h-3.8164l-6.3301 6.209v-14.793zm-70.289 1.2793c-0.55851 0-1.0241 0.27341-1.3965 0.63867-0.37241 0.45657-0.55859 0.91306-0.55859 1.4609s0.18618 1.0957 0.55859 1.4609c0.37241 0.45657 0.83797 0.63867 1.3965 0.63867 0.55861 0 1.0241-0.27341 1.3965-0.63867 0.37231-0.45657 0.55859-0.91306 0.55859-1.4609s-0.18629-1.0957-0.55859-1.4609c-0.37241-0.45657-0.83787-0.63867-1.3965-0.63867zm-12.01 6.8477c-1.1171 0-2.1413 0.27341-3.0723 0.63867-1.0241 0.36525-1.7689 0.91402-2.5137 1.6445-0.74482 0.73048-1.3034 1.5517-1.6758 2.4648-0.37241 0.91315-0.55859 1.918-0.55859 3.0137 1e-6 1.0958 0.27929 2.1005 0.55859 3.0137 0.46551 1.0045 0.93096 1.7344 1.6758 2.4648 0.74482 0.73058 1.5826 1.2793 2.5137 1.6445 0.93092 0.45658 1.9551 0.63867 3.0723 0.63867 1.1172 0 2.1412-0.27343 3.0723-0.63867 1.024-0.45658 1.769-0.91395 2.5137-1.6445 0.74482-0.73048 1.3034-1.5517 1.6758-2.4648 0.3723-0.91315 0.55859-1.9178 0.55859-3.0137 0-1.0957-0.18629-2.1005-0.55859-3.0137-0.46551-0.91315-0.93096-1.7344-1.6758-2.4648-0.74471-0.73051-1.5828-1.2793-2.5137-1.6445-0.93102-0.45658-1.955-0.63867-3.0723-0.63867zm25.23 0.18359c-1.2103 0-2.2343 0.2739-3.0723 0.73047-0.93092 0.45658-1.4909 1.0942-1.8633 1.916h-0.091797v-2.2813h-2.6074v14.791h2.793v-7.5781c0-0.82182 0.09309-1.5522 0.2793-2.1914 0.1862-0.63914 0.46548-1.1875 0.83789-1.5527 0.37231-0.45658 0.83722-0.72944 1.3027-0.91211 0.46551-0.18267 1.0254-0.27539 1.584-0.27539 0.46551 0 0.93043 0.09225 1.3027 0.18359 0.46551 0.09134 0.83788 0.36466 1.1172 0.63867 0.27931 0.2739 0.55794 0.73092 0.74414 1.1875 0.1861 0.45658 0.2793 1.0951 0.2793 1.7344v8.6758h2.793v-9.4062c0-1.0045-0.18554-1.8262-0.46484-2.5566-0.37241-0.73058-0.74543-1.2778-1.2109-1.7344-0.46551-0.45658-1.0242-0.82128-1.6758-1.0039-0.65172-0.27395-1.3022-0.36523-2.0469-0.36523zm33.422 0c-1.117 0-2.1432 0.18161-3.0742 0.54688-0.93102 0.45657-1.7684 0.91399-2.4199 1.6445-0.6515 0.73048-1.21 1.5517-1.582 2.4648-0.37303 0.91315-0.5586 1.918-0.5586 3.0137s0.18557 2.1005 0.5586 3.0137c0.27952 1.0045 0.83872 1.7344 1.4902 2.4648 0.65151 0.73058 1.4889 1.2773 2.4199 1.6426 0.93103 0.36534 1.9555 0.54883 3.166 0.54883 2.7931 0 5.0268-1.0047 6.6094-3.0137l-2.1406-1.6426c-0.55903 0.63925-1.118 1.1855-1.7695 1.5508-0.65151 0.45658-1.4896 0.64062-2.3281 0.64062-0.65151 0-1.2088-0.09282-1.8613-0.27539-0.558-0.18267-1.1185-0.45497-1.584-0.82031-0.46551-0.36524-0.83571-0.82329-1.1152-1.3711-0.2795-0.54791-0.4668-1.0952-0.4668-1.7344h11.916v-1.0039c0-1.0045-0.0916-1.919-0.37109-2.832-0.27952-0.91315-0.74473-1.7343-1.3027-2.4648-0.55902-0.73048-1.3053-1.2778-2.2363-1.7344-0.93102-0.45657-2.0466-0.63867-3.3496-0.63867zm-73.361 0.089844c-1.1171 0-2.235 0.18358-3.166 0.54883-0.93092 0.36526-1.7682 0.91351-2.4199 1.5527-0.65161 0.73048-1.2096 1.5517-1.582 2.4648-0.37241 0.91315-0.55859 2.0077-0.55859 3.1035 0 1.0957 0.18618 2.1923 0.55859 3.1055 0.37241 0.91305 0.93042 1.7359 1.582 2.375 0.65172 0.63925 1.489 1.1855 2.4199 1.5508 0.93102 0.36534 2.0489 0.54883 3.166 0.54883 1.1172 0 2.1412-0.18348 3.0723-0.54883 0.93092-0.36524 1.7689-0.91246 2.5137-1.7344l-1.9551-2.0078c-0.46551 0.54791-1.0254 0.91164-1.584 1.1855-0.55851 0.27401-1.209 0.45703-2.0469 0.45703-0.74472 0-1.3965-0.09123-1.9551-0.36524-0.55851-0.2739-1.1178-0.63913-1.4902-1.0957-0.37241-0.45658-0.74348-0.91349-0.92969-1.5527-0.27931-0.63914-0.37305-1.2788-0.37305-1.918 0-0.63925 0.09309-1.2768 0.2793-1.916 0.1862-0.63914 0.46548-1.188 0.83789-1.6445 0.37241-0.54791 0.83787-0.9136 1.3965-1.1875 0.55851-0.27401 1.304-0.45508 2.0488-0.45508 0.83782 0 1.4883 0.18107 2.0469 0.45508 0.65161 0.2739 1.1172 0.63959 1.6758 1.1875l2.1426-1.8262c-0.74482-0.73048-1.5834-1.3691-2.6074-1.7344-0.93102-0.36525-1.955-0.54883-3.0723-0.54883zm88.721 0c-0.65151 0-1.3954 0.09276-2.0469 0.27539-0.65151 0.18263-1.2115 0.45505-1.7695 0.82031-0.55903 0.36525-1.0243 0.82318-1.3027 1.3711-0.27952 0.54791-0.46484 1.2773-0.46484 2.0078 0 0.63925 0.0916 1.2778 0.37109 1.7344 0.27953 0.45658 0.65144 0.9136 1.0234 1.1875 0.37303 0.27401 0.83851 0.5478 1.3965 0.73047 0.46552 0.18257 1.1178 0.27436 1.6758 0.45703l1.1172 0.27344c0.37303 0.09134 0.7452 0.18267 1.1172 0.36523 0.37303 0.18267 0.65317 0.36662 0.93164 0.64062 0.27954 0.2739 0.37305 0.63867 0.37305 1.0039 0 0.27401-0.0933 0.54836-0.2793 0.82227-0.18599 0.18267-0.37282 0.36431-0.65234 0.54688-0.27951 0.18267-0.5577 0.274-0.92969 0.36524-0.37303 0.09134-0.74519 0.0918-1.1172 0.0918-0.83855 0-1.4908-0.18348-2.0488-0.54883-0.55901-0.36524-1.0247-0.72897-1.4902-1.1855l-2.1406 1.7344c0.74503 1.0045 1.5826 1.6426 2.5137 2.0078 0.93102 0.36534 2.0483 0.54883 3.2578 0.54883 0.65151 0 1.3975-0.09087 2.1426-0.27344 0.74503-0.18267 1.3951-0.45703 1.9531-0.82227 0.55903-0.36524 1.0245-0.91303 1.3965-1.4609 0.37303-0.54791 0.55859-1.2778 0.55859-2.0996 0-0.73048-0.1851-1.2798-0.37109-1.7363-0.27952-0.45658-0.55964-0.82226-0.93164-1.1875-0.37303-0.36524-0.8385-0.63774-1.3965-0.82031-0.46551-0.27401-1.1168-0.36616-1.6758-0.54883-0.27952 0-0.65168-0.0903-1.1172-0.18164-0.37303-0.09123-0.83894-0.18256-1.2109-0.36524-0.37199-0.18257-0.74498-0.36672-1.0234-0.64062-0.27952-0.18267-0.46485-0.54733-0.46485-1.0039 0-0.54791 0.27865-0.9136 0.74415-1.1875 0.55903-0.27401 1.117-0.45508 1.7695-0.45508 0.65151 0 1.304 0.18107 1.7695 0.45508 0.46551 0.2739 0.83595 0.64062 1.209 1.0059l2.2344-1.5527c-0.55903-0.82182-1.3034-1.4609-2.2344-1.8262-0.93102-0.36525-1.8622-0.54883-2.8867-0.54883zm-63.305 0.27539v14.609h2.793v-14.609zm47.945 1.6426c0.74503 0 1.3023 0.18267 1.8613 0.36523 0.46551 0.27401 0.93074 0.54882 1.3027 0.91406 0.37304 0.36524 0.65085 0.82123 0.83789 1.3691 0.16722 0.49266 0.24884 0.9937 0.26563 1.5527h-8.9238c0-0.45658 0.18602-0.91303 0.37305-1.4609 0.186-0.54791 0.5586-1.0059 0.93164-1.3711 0.46551-0.45658 0.93029-0.7299 1.4883-1.0039 0.55903-0.2739 1.2118-0.36523 1.8633-0.36523zm-17.689 0.27344c0.74472 0 1.3973 0.09123 2.0488 0.36524 0.65152 0.2739 1.1165 0.63913 1.582 1.0957 0.372 0.45658 0.74565 1.0054 0.93165 1.6445 0.27949 0.63925 0.37109 1.3691 0.37109 2.0996 0 0.82192-0.18509 1.4623-0.37109 2.1016-0.186 0.63914-0.55965 1.186-0.93165 1.6426-0.4655 0.45658-0.93051 0.8218-1.582 1.0957-0.65151 0.27401-1.3041 0.36524-2.0488 0.36524-0.74481 0-1.4902-0.18256-2.0488-0.36524-0.65172-0.2739-1.2097-0.63913-1.582-1.0957-0.37241-0.45658-0.74544-1.0034-0.93164-1.6426-0.27931-0.63925-0.37109-1.371-0.37109-2.1016 0-0.82182 0.18489-1.4604 0.37109-2.0996 0.1862-0.63914 0.55923-1.188 0.93164-1.6445 0.46541-0.45658 0.93031-0.8218 1.582-1.0957 0.65171-0.27401 1.304-0.36524 2.0488-0.36524zm-40.963 0.27539c0.74482 0 1.4902 0.09133 2.0488 0.36523 0.55861 0.18267 1.116 0.54733 1.4883 1.0039 0.37241 0.45658 0.74544 1.0033 0.93164 1.6426 0.27931 0.54791 0.37305 1.2793 0.37305 2.0098 0 0.73058-0.18684 1.3705-0.37305 2.0098-0.1862 0.63914-0.55923 1.186-0.93164 1.6426-0.37231 0.36524-0.92967 0.73-1.4883 1.0039-0.65172 0.274-1.304 0.36524-2.0488 0.36524-0.74472 0-1.4902-0.09123-2.0488-0.36524-0.55851-0.18257-1.1159-0.54733-1.4883-1.0039-0.37241-0.45658-0.74544-1.0034-0.93164-1.6426-0.2792-0.54791-0.37305-1.2792-0.37305-2.0098 0-0.73048 0.18695-1.3706 0.37305-2.0098 0.1862-0.63925 0.55923-1.186 0.93164-1.6426 0.37241-0.36524 0.92977-0.73 1.4883-1.0039 0.65172-0.2739 1.3041-0.36523 2.0488-0.36523zm-45.842 2.4648c-0.83792 0-1.4883 0.63912-1.4883 1.4609 0 0.82192 0.65036 1.4609 1.4883 1.4609 0.83782 0 1.4902-0.63902 1.4902-1.4609 0-0.82182-0.65242-1.4609-1.4902-1.4609zm11.078 0c-0.83792 0-1.4883 0.63912-1.4883 1.4609 0 0.82192 0.65036 1.4609 1.4883 1.4609 0.83792 0 1.4902-0.63902 1.4902-1.4609 0-0.82182-0.65231-1.4609-1.4902-1.4609zm0 11.049c-0.83792 0-1.4883 0.63912-1.4883 1.4609 0 0.82182 0.65036 1.4609 1.4883 1.4609 0.83792 0 1.4902-0.63912 1.4902-1.4609 0-0.82182-0.65231-1.4609-1.4902-1.4609z" style="stroke-width:1.0391"/>
</svg>
