<svg width="14" height="16" viewBox="0 0 14 16" xmlns="http://www.w3.org/2000/svg">
<path d="M13.6667 16.0001L10.1667 12.6667L10.5867 14.0001H2.00004C1.55801 14.0001 1.13409 13.8245 0.821529 13.5119C0.508969 13.1994 0.333374 12.7754 0.333374 12.3334V2.33341C0.333374 1.89139 0.508969 1.46746 0.821529 1.1549C1.13409 0.842343 1.55801 0.666748 2.00004 0.666748H12C12.4421 0.666748 12.866 0.842343 13.1786 1.1549C13.4911 1.46746 13.6667 1.89139 13.6667 2.33341V16.0001ZM7.00004 4.53341C5.21337 4.53341 3.96004 5.30008 3.96004 5.30008C4.64671 4.68675 5.84671 4.33341 5.84671 4.33341L5.73337 4.22008C4.60671 4.24008 3.58671 5.02008 3.58671 5.02008C2.44004 7.41341 2.51337 9.48008 2.51337 9.48008C3.44671 10.6867 4.83337 10.6001 4.83337 10.6001L5.30671 10.0001C4.47337 9.82008 3.94671 9.08008 3.94671 9.08008C3.94671 9.08008 5.20004 9.93341 7.00004 9.93341C8.80004 9.93341 10.0534 9.08008 10.0534 9.08008C10.0534 9.08008 9.52671 9.82008 8.69337 10.0001L9.16671 10.6001C9.16671 10.6001 10.5534 10.6867 11.4867 9.48008C11.4867 9.48008 11.56 7.41341 10.4134 5.02008C10.4134 5.02008 9.39337 4.24008 8.26671 4.22008L8.15337 4.33341C8.15337 4.33341 9.35337 4.68675 10.04 5.30008C10.04 5.30008 8.78671 4.53341 7.00004 4.53341ZM5.62004 7.06008C6.05337 7.06008 6.40671 7.44008 6.40004 7.90675C6.40004 8.36675 6.05337 8.75341 5.62004 8.75341C5.19337 8.75341 4.84671 8.36675 4.84671 7.90675C4.84671 7.44008 5.18671 7.06008 5.62004 7.06008ZM8.40004 7.06008C8.83337 7.06008 9.18004 7.44008 9.18004 7.90675C9.18004 8.36675 8.83337 8.75341 8.40004 8.75341C7.97337 8.75341 7.62671 8.36675 7.62671 7.90675C7.62671 7.44008 7.96671 7.06008 8.40004 7.06008Z" />
</svg>
