<svg version="1.1" width="114" height="30" viewBox="0 0 114 30" xmlns="http://www.w3.org/2000/svg" xmlns:xlink="http://www.w3.org/1999/xlink">
 <path d="m103.48 29.98c-1.461-0.1585-3.7843-0.6742-4.558-1.0111l-0.3781-0.1646-0.0516-1.897c-0.0282-1.0435-0.0608-2.4387-0.0725-3.1004l-0.0212-1.2032 0.2267-0.1101c0.1245-0.0603 0.3759-0.1168 0.5586-0.1255l0.3322-0.0157 0.2831 0.7059c1.1038 2.7538 2.3988 4.2388 4.0908 4.6903 0.645 0.1723 1.855 0.1739 2.333 0.0029 1.338-0.4788 2.071-1.5052 2.078-2.9075 7e-3 -1.6608-0.894-2.4589-4.297-3.8062-2.109-0.8346-2.845-1.2643-3.721-2.1727-0.9446-0.98-1.398-2.0953-1.4832-3.649-0.1029-1.8775 0.4769-3.46 1.7622-4.8087 1.293-1.3573 2.971-2.0927 5.258-2.3042 2.014-0.18611 5.105 0.24643 6.724 0.94145l0.296 0.12675 0.053 1.691c0.029 0.9299 0.059 2.1765 0.066 2.7705l0.014 1.0794-0.397 0.1492c-0.627 0.2362-0.668 0.2063-1.017-0.7303-0.978-2.6264-2.115-3.8691-3.886-4.2487-1.079-0.23103-1.98 0.01765-2.636 0.72744-0.511 0.5538-0.71 1.0454-0.759 1.8713-0.052 0.8947 0.106 1.3782 0.645 1.9767 0.665 0.737 1.755 1.3736 3.925 2.2926 2.658 1.1253 3.926 2.0809 4.616 3.4774 0.448 0.9071 0.574 1.6313 0.529 3.0259-0.033 1.0463-0.067 1.2613-0.301 1.9637-0.766 2.2904-2.495 3.7986-5.167 4.5055-0.904 0.2393-1.033 0.2518-2.832 0.2717-1.037 0.0116-2.033 0.0049-2.213-0.0147zm-35.324-0.2375c2.4897-0.3783 4.3159-1.2447 5.8626-2.781 2.2354-2.2208 3.3121-5.3551 3.1667-9.2179-0.075-1.9888-0.3955-3.288-1.209-4.8998-1.1021-2.1835-2.9869-3.7148-5.127-4.1659-1.6055-0.33821-3.6712-0.07348-5.2416 0.67256-0.3914 0.18546-0.766 0.33756-0.8325 0.33756-0.1055 0-0.1169-0.6148-0.0903-4.8437l0.0311-4.844-0.329 0.06674c-0.1809 0.036901-2.0252 0.38505-4.0988 0.77396-2.0735 0.3889-3.851 0.72615-3.9498 0.74989-0.1501 0.03562-0.1764 0.09369-0.1603 0.3536 0.0178 0.28976 0.0415 0.31607 0.3436 0.38345 1.039 0.23168 1.224 0.31414 1.6103 0.71845 0.4731 0.49543 0.6869 1.1279 0.8272 2.448 0.1117 1.0518 0.1364 19.174 0.0297 21.849l-0.063 1.5861 0.8449 0.1828c3.1968 0.6928 6.3835 0.9328 8.3852 0.6299zm22.577-0.0025c1.8987-0.3122 3.7687-1.2357 5.113-2.5253 0.7359-0.7063 0.9801-1.0474 0.8778-1.2258-0.273-0.4765-0.2613-0.4762-0.9589-0.0417-1.1109 0.6912-1.6673 0.8818-2.9723 1.0175-1.5241 0.1585-2.9302-0.0998-4.2295-0.7765-0.8617-0.4489-1.8947-1.4818-2.4108-2.4108-0.7043-1.2678-1.0865-2.7483-1.2005-4.6514-0.0479-0.799-0.0374-0.9983 0.0551-1.0576 0.063-0.0405 2.7959-0.0738 6.1175-0.0745l6.0035-0.0013v-0.2403c0-0.5461-0.1771-2.0145-0.3357-2.7839-0.6378-3.0952-2.3212-5.3022-4.7219-6.1898-0.9558-0.3536-1.8595-0.50217-3.0509-0.50217-2.8228 0-5.1282 0.93825-6.9117 2.8125-1.4219 1.4946-2.2655 3.1734-2.7804 5.5335-0.1552 0.7111-0.1811 1.0807-0.1811 2.5744 0 1.4824 0.0266 1.8649 0.177 2.5507 0.9557 4.3555 3.7836 7.2239 7.8469 7.9587 1.0295 0.1861 2.5467 0.2005 3.5629 0.0337zm-58.106-0.1082c1.4542-0.3439 2.6135-0.8692 3.6497-1.6534 2.5207-1.9077 3.9017-4.8321 4.0294-8.5325 0.1257-3.6477-0.9602-6.757-3.0594-8.7619-1.7041-1.6275-3.8517-2.4075-6.6277-2.4075-2.9425 0-5.3125 0.92445-7.1356 2.7836-1.9529 1.9917-2.9862 4.7698-2.9862 8.0306 0 3.3827 0.9335 6.1133 2.7433 8.0264 0.9982 1.0547 1.9697 1.6875 3.3624 2.1897 0.4928 0.1774 0.8551 0.2628 2.1721 0.5108 0.1127 0.0212 0.8687 0.025 1.68 0.0087 1.0938-0.0222 1.6483-0.0716 2.172-0.1945zm-15.845-9.6876-0.1896-0.789c-0.3569-1.4822-1.0438-2.5433-1.8928-2.9239-0.3917-0.1755-1.3617-0.2756-3.238-0.3333l-0.881-0.027v1.8742c0 2.0428 0.1109 4.8061 0.2527 6.3056 0.1983 2.0908 0.7255 3.246 1.6724 3.6641 0.1808 0.0799 0.7527 0.2095 1.2711 0.2882 0.5184 0.0786 1.007 0.1768 1.0859 0.2178 0.2001 0.105 0.2118 1.1876 0.0139 1.2646-0.1552 0.0603-14.618 0.0558-14.766-0.0045-0.06808-0.0279-0.10228-0.2349-0.10228-0.618 0-0.6883-0.04339-0.6575 1.2702-0.9042 1.0076-0.1897 1.368-0.3832 1.813-0.9742 0.86262-1.1462 1.0491-3.3525 1.051-12.438 0.0019-8.5328-0.16056-10.327-1.0526-11.646-0.39584-0.58528-1.0628-0.90295-2.18-1.0384l-0.86072-0.10461-0.02375-0.68058-0.02375-0.6809 0.2698-0.048452c0.1482-0.026954 5.3581-0.038183 11.577-0.025348l11.308 0.023746 0.0532 0.3321c0.0291 0.18258 0.0769 2.0565 0.1061 4.1644l0.0535 3.8322-0.583 0.17937c-0.8778 0.27018-0.8725 0.27339-1.267-0.78486-0.97-2.6001-2.0818-4.0983-3.6035-4.8546-1.0494-0.52207-1.5346-0.58496-4.4983-0.58496h-2.5793l-0.0444 0.43607c-0.0832 0.81728-0.215 6.0768-0.214 8.5537l9e-4 2.4704 0.7581-0.0045c0.4171-0.0023 1.2392-0.0334 1.8269-0.069 0.8839-0.0536 1.1467-0.1011 1.5163-0.2743 0.9085-0.4262 1.5266-1.3641 1.9054-2.8915l0.1954-0.7884 1.3379-0.0481v9.9787zm23.729 9.5211c-0.0748-0.0481-0.0992-0.2397-0.0821-0.6427l0.0247-0.5737 0.2869-0.062c0.1578-0.034 0.4966-0.1017 0.7531-0.1502 0.7936-0.1501 1.2496-0.5868 1.5061-1.4413 0.209-0.6967 0.3012-2.9245 0.3059-7.3985 6e-3 -5.4719-0.1064-6.7641-0.6527-7.4967-0.2957-0.3969-0.5092-0.5098-1.2271-0.6494-0.3543-0.069-0.7274-0.1428-0.8287-0.1643-0.1644-0.0347-0.1846-0.0889-0.1846-0.4958 0-0.39561 0.025-0.46717 0.1846-0.53391 0.2451-0.10204 8.3643-1.7465 8.6237-1.7465h0.2023l-0.0396 1.2248c-0.0218 0.67385-0.057 1.6547-0.0776 2.18l-0.038 0.9549 0.2942-0.5374c0.9415-1.7206 1.9976-2.7885 3.4017-3.4405 0.7708-0.3581 1.2851-0.46495 2.2373-0.46495 1.1296 0 2.2586 0.3735 2.2586 0.747 0 0.25125-1.9897 5.5787-2.0996 5.6214-0.0535 0.0209-0.4421-0.1299-0.8632-0.3347-0.8788-0.4274-1.7031-0.6363-2.5033-0.6343-0.9969 0.0022-2.11 0.3738-2.5496 0.8516-0.1878 0.2044-0.1887 0.2166-0.2356 3.2678-0.0462 3.0217 0.0532 6.7073 0.2207 8.1897 0.1432 1.2627 0.4741 1.8846 1.1581 2.174 0.2283 0.0966 1.6717 0.2968 2.1429 0.2974 0.0358 0 0.0542 0.2898 0.0409 0.6437l-0.0238 0.6437-6.0649 0.0199c-3.3004 0.0106-6.0539-0.0109-6.1713-0.0491zm-9.2124-1.1362c0.5805-0.1746 1.2968-0.8552 1.6784-1.5948 0.7882-1.527 1.1403-3.7854 1.1489-7.3715 0.011-4.4939-0.6844-7.3539-2.1518-8.8511-0.6163-0.6286-1.0533-0.82401-1.8412-0.82272-1.7486 0.0029-2.8586 1.8527-3.2972 5.495-0.2014 1.6743-0.2027 5.6632-0.0019 7.127 0.6213 4.5305 2.225 6.6922 4.4648 6.0181zm35.511-0.0401c0.5954-0.1143 1.0577-0.3543 1.5546-0.8067 1.2445-1.134 2.1803-3.4751 2.5483-6.3755 0.1501-1.1812 0.1298-3.873-0.0364-4.8591-0.4494-2.6668-1.4153-4.4194-2.8238-5.125-0.5846-0.2927-0.6745-0.3135-1.3677-0.3135-0.4959 0-0.9222 0.0539-1.2848 0.162l-0.5428 0.162-0.0402 3.0352c-0.0513 3.8881 0.0735 13.622 0.1783 13.901 0.0668 0.1781 0.1406 0.2159 0.4725 0.2423 0.7762 0.0619 0.9085 0.06 1.342-0.0231zm22.851-11.926 1.426-0.0504-0.0513-1.0261c-0.1811-3.6192-1.0551-5.5968-2.4729-5.5955-1.5406 0.0019-2.7718 2.009-3.2839 5.3532-0.0627 0.4111-0.115 0.8988-0.1159 1.0836l-1e-3 0.3357 1.5365-0.0251c0.8452-0.0138 2.1784-0.0478 2.9628-0.0754z" clip-rule="evenodd" fill-rule="evenodd" />
</svg>
