<svg width="209" height="51" viewBox="0 0 209 51" xmlns="http://www.w3.org/2000/svg">
<g clip-path="url(#clip0)">
<path d="M30.0786 47.9216V4.24398L17.5483 18.9178L6.89736 0.429565H3.03941L15.2617 21.8083L12.6321 24.9339L0 2.76622V44.4848L12.0869 31.1512L23.2844 50.4296H27.1771L14.4419 28.3332L17.0714 25.0351L30.0786 47.9216ZM27.0057 13.3506V35.4132L19.4947 22.2859L27.0057 13.3506ZM3.18101 35.8245V15.5847L10.1119 27.7493L3.18101 35.8245Z" />
<path d="M44.9629 35.761V15.0981H48.2311V35.761H44.9629Z" />
<path d="M92.8868 35.761V15.0981H103.208V18.0238H96.01V23.0629H102.963V25.9885H96.01V35.7624L92.8868 35.761Z" />
<path d="M115.112 35.761V15.0981H118.238V35.761H115.112Z" />
<path d="M131.4 35.761V13.6758L146.337 29.4632V15.0981H149.518V37.1833L134.581 21.4372V35.761H131.4Z" />
<path d="M61.4458 35.761V13.6758L76.3869 29.4632V15.0981H79.5684V37.1833L64.6301 21.4372V35.761H61.4458Z" />
<path d="M162.788 35.761V15.0981H165.914V35.761H162.788Z" />
<path d="M181.783 35.761V18.0295H177.61V15.0981H188.781V18.0238H184.764V35.761H181.783Z" />
<path d="M199.071 35.761V15.0981H208.974V18.0238H202.192V23.0302H208.704V25.9416H202.192V32.8297H209V35.7553L199.071 35.761Z" />
</g>
<defs>
<clipPath id="clip0">
<rect width="209" height="50" transform="translate(0 0.429565)"/>
</clipPath>
</defs>
</svg>
