<svg width="233" height="41" viewBox="0 0 233 41" fill="none" xmlns="http://www.w3.org/2000/svg">
<path d="M24.128 38.6582V3.71608L14.0766 15.4551L5.53281 0.664551H2.4381L12.2423 17.7675L10.133 20.268L0 2.53388V35.9087L9.69563 25.2419L18.6779 40.6646H21.8005L11.5847 22.9875L13.694 20.349L24.128 38.6582ZM21.663 11.0014V28.6515L15.638 18.1496L21.663 11.0014ZM2.55169 28.9805V12.7887L8.11141 22.5204L2.55169 28.9805Z" fill="white"/>
<path d="M38.0674 21.9296V5.39929H40.689V21.9296H38.0674Z" fill="white"/>
<path d="M76.5102 21.9296V5.39929H84.7899V7.7398H79.0155V11.7711H84.5927V14.1116H79.0155V21.9307L76.5102 21.9296Z" fill="white"/>
<path d="M94.3381 21.9296V5.39929H96.8457V21.9296H94.3381Z" fill="white"/>
<path d="M107.404 21.9296V4.26147L119.386 16.8913V5.3993H121.938V23.0674L109.956 10.4706V21.9296H107.404Z" fill="white"/>
<path d="M51.2893 21.9296V4.26147L63.2745 16.8913V5.3993H65.8266V23.0674L53.8436 10.4706V21.9296H51.2893Z" fill="white"/>
<path d="M132.583 21.9296V5.39929H135.09V21.9296H132.583Z" fill="white"/>
<path d="M147.82 21.9296V7.74435H144.472V5.39929H153.433V7.7398H150.211V21.9296H147.82Z" fill="white"/>
<path d="M161.687 21.9296V5.39929H169.631V7.7398H164.191V11.7449H169.415V14.0741H164.191V19.5845H169.652V21.925L161.687 21.9296Z" fill="white"/>
<path fill-rule="evenodd" clip-rule="evenodd" d="M196.984 32.6646C189.661 32.6646 186 29.1646 186 22.1646C186 15.1645 189.661 11.6646 196.984 11.6646H222.016C229.339 11.6646 233 15.1645 233 22.1646C233 29.1646 229.339 32.6646 222.016 32.6646H196.984Z" fill="white"/>
<path d="M197.1 26.6646H200.868C201.868 26.6646 202.648 26.4246 203.208 25.9446C203.776 25.4566 204.06 24.7846 204.06 23.9286C204.06 23.5206 203.98 23.1366 203.82 22.7766C203.66 22.4166 203.38 22.1086 202.98 21.8526C203.228 21.6286 203.408 21.3806 203.52 21.1086C203.64 20.8366 203.7 20.5486 203.7 20.2446C203.7 19.4606 203.448 18.8446 202.944 18.3966C202.44 17.9486 201.748 17.7246 200.868 17.7246H197.1V26.6646ZM198.732 21.1926V19.1166H200.952C201.288 19.1166 201.556 19.2086 201.756 19.3926C201.956 19.5766 202.056 19.8246 202.056 20.1366C202.056 20.4486 201.956 20.7046 201.756 20.9046C201.556 21.0966 201.288 21.1926 200.952 21.1926H198.732ZM198.732 25.2246V22.6206H201.036C201.46 22.6206 201.796 22.7406 202.044 22.9806C202.3 23.2126 202.428 23.5286 202.428 23.9286C202.428 24.3206 202.3 24.6366 202.044 24.8766C201.796 25.1086 201.46 25.2246 201.036 25.2246H198.732Z" fill="black"/>
<path d="M208.361 26.8086C209.025 26.8086 209.605 26.6606 210.101 26.3646C210.605 26.0606 210.957 25.6766 211.157 25.2126L209.885 24.5886C209.741 24.8366 209.541 25.0406 209.285 25.2006C209.037 25.3526 208.733 25.4286 208.373 25.4286C207.901 25.4286 207.505 25.2846 207.185 24.9966C206.865 24.7086 206.681 24.3246 206.633 23.8446H211.337C211.369 23.7566 211.389 23.6566 211.397 23.5446C211.413 23.4246 211.421 23.3046 211.421 23.1846C211.421 22.6006 211.297 22.0686 211.049 21.5886C210.801 21.1086 210.441 20.7246 209.969 20.4366C209.497 20.1406 208.921 19.9926 208.241 19.9926C207.633 19.9926 207.081 20.1406 206.585 20.4366C206.097 20.7326 205.709 21.1366 205.421 21.6486C205.141 22.1526 205.001 22.7326 205.001 23.3886C205.001 24.0206 205.141 24.5966 205.421 25.1166C205.701 25.6366 206.093 26.0486 206.597 26.3526C207.101 26.6566 207.689 26.8086 208.361 26.8086ZM208.241 21.2886C208.657 21.2886 209.001 21.4166 209.273 21.6726C209.553 21.9206 209.709 22.2446 209.741 22.6446H206.669C206.757 22.2126 206.941 21.8806 207.221 21.6486C207.509 21.4086 207.849 21.2886 208.241 21.2886Z" fill="black"/>
<path d="M215.589 26.7366C215.853 26.7366 216.113 26.7166 216.369 26.6766V25.3206C216.217 25.3446 216.077 25.3566 215.949 25.3566C215.565 25.3566 215.285 25.2686 215.109 25.0926C214.933 24.9166 214.845 24.6646 214.845 24.3366V21.5406H216.345V20.1366H214.845V18.6486H213.273V19.1526C213.273 19.4726 213.185 19.7166 213.009 19.8846C212.833 20.0526 212.585 20.1366 212.265 20.1366H212.145V21.5406H213.273V24.4206C213.273 25.1486 213.473 25.7166 213.873 26.1246C214.281 26.5326 214.853 26.7366 215.589 26.7366Z" fill="black"/>
<path d="M219.515 26.8086C220.363 26.8086 221.043 26.5286 221.555 25.9686V26.6646H223.043V22.3206C223.043 21.8646 222.927 21.4606 222.695 21.1086C222.463 20.7566 222.143 20.4846 221.735 20.2926C221.335 20.0926 220.867 19.9926 220.331 19.9926C219.675 19.9926 219.091 20.1486 218.579 20.4606C218.067 20.7726 217.715 21.1846 217.523 21.6966L218.807 22.3206C218.927 22.0246 219.115 21.7886 219.371 21.6126C219.627 21.4286 219.927 21.3366 220.271 21.3366C220.631 21.3366 220.919 21.4326 221.135 21.6246C221.359 21.8086 221.471 22.0406 221.471 22.3206V22.5366L219.527 22.8486C218.759 22.9766 218.191 23.2206 217.823 23.5806C217.455 23.9406 217.271 24.3926 217.271 24.9366C217.271 25.5126 217.475 25.9686 217.883 26.3046C218.291 26.6406 218.835 26.8086 219.515 26.8086ZM218.903 24.8766C218.903 24.4206 219.211 24.1326 219.827 24.0126L221.471 23.7366V24.0006C221.471 24.4486 221.315 24.8286 221.003 25.1406C220.699 25.4526 220.299 25.6086 219.803 25.6086C219.539 25.6086 219.323 25.5446 219.155 25.4166C218.987 25.2806 218.903 25.1006 218.903 24.8766Z" fill="black"/>
<path d="M136.466 33.5774C136.192 33.3676 135.882 33.1824 135.546 33.0466C135.223 32.9232 134.9 32.7998 134.577 32.6887C134.316 32.6023 134.056 32.5158 133.832 32.4171C133.608 32.3307 133.422 32.2319 133.26 32.1208C133.111 32.0221 133 31.8987 132.925 31.7629C132.851 31.6394 132.813 31.479 132.813 31.2815C132.813 30.9605 132.925 30.7013 133.161 30.4914C133.41 30.2816 133.844 30.1705 134.453 30.1705C134.776 30.1705 135.099 30.2075 135.41 30.2693C135.72 30.3433 135.993 30.4297 136.229 30.5408L136.552 30.7013L137.012 29.2941L136.776 29.1707C136.466 29.0102 136.105 28.8867 135.72 28.8003C135.347 28.7139 134.913 28.6646 134.453 28.6646C133.906 28.6646 133.422 28.7263 133.024 28.8621C132.615 28.9855 132.267 29.1707 131.993 29.4052C131.72 29.6397 131.521 29.936 131.385 30.2693C131.26 30.5902 131.198 30.9358 131.198 31.3061C131.198 31.7629 131.285 32.1702 131.472 32.4912C131.646 32.8121 131.882 33.0837 132.155 33.2935C132.416 33.491 132.714 33.6638 133.024 33.7996C133.323 33.923 133.621 34.0341 133.906 34.1206C134.18 34.207 134.453 34.2934 134.702 34.3798C134.925 34.4662 135.136 34.5649 135.31 34.676C135.472 34.7748 135.596 34.9106 135.683 35.0463C135.77 35.1821 135.807 35.3549 135.807 35.5771C135.807 35.7993 135.77 35.9968 135.683 36.145C135.608 36.3178 135.497 36.4412 135.347 36.54C135.186 36.6511 134.987 36.7251 134.764 36.7745C134.515 36.8239 134.254 36.8609 133.956 36.8609C133.521 36.8609 133.124 36.8239 132.788 36.7375C132.453 36.6511 132.167 36.5523 131.931 36.4412L131.608 36.2807L131.136 37.7003L131.372 37.8237C131.67 37.9842 132.043 38.12 132.453 38.2187C132.863 38.3175 133.41 38.3669 134.068 38.3669C134.528 38.3669 134.975 38.3175 135.372 38.2064C135.782 38.0953 136.143 37.9225 136.441 37.7003C136.751 37.4657 136.987 37.1695 137.161 36.8239C137.335 36.4782 137.422 36.0585 137.422 35.6018C137.422 35.1328 137.335 34.7254 137.149 34.3921C136.975 34.0835 136.751 33.7996 136.466 33.5774Z" fill="white"/>
<path d="M146.131 34.4295C146.131 35.2689 145.957 35.8861 145.609 36.2687C145.274 36.639 144.777 36.8242 144.118 36.8242C143.46 36.8242 142.975 36.639 142.628 36.2687C142.28 35.8861 142.106 35.2689 142.106 34.4295V28.7883H140.479V34.4171C140.479 35.0837 140.565 35.6639 140.727 36.1453C140.901 36.639 141.149 37.0587 141.46 37.392C141.783 37.7253 142.18 37.9845 142.628 38.145C143.075 38.3055 143.572 38.3795 144.118 38.3795C144.665 38.3795 145.162 38.3055 145.609 38.145C146.069 37.9845 146.454 37.7377 146.777 37.392C147.1 37.0587 147.348 36.639 147.51 36.1453C147.671 35.6639 147.758 35.0837 147.758 34.4171V28.7883H146.118V34.4295H146.131Z" fill="white"/>
<path d="M159.348 29.0955H158.168L154.528 33.0208V33.5022L158.268 37.9337H159.497L155.522 33.2307L159.348 29.0955Z" fill="white"/>
<path d="M152.578 29.0955H151.572V37.9337H152.578V29.0955Z" fill="white"/>
<path d="M168.13 29.0955V34.4157C168.13 35.3415 167.931 36.0327 167.534 36.4648C167.136 36.9091 166.565 37.1313 165.807 37.1313C165.061 37.1313 164.49 36.9091 164.08 36.4648C163.683 36.0204 163.484 35.3415 163.484 34.4157V29.0955H162.478V34.4033C162.478 35.0329 162.552 35.576 162.714 36.0327C162.863 36.4895 163.086 36.8598 163.384 37.1684C163.67 37.4646 164.03 37.6868 164.428 37.8349C164.838 37.9831 165.297 38.0571 165.807 38.0571C166.316 38.0571 166.776 37.9831 167.186 37.8349C167.596 37.6868 167.943 37.4646 168.229 37.1684C168.515 36.8721 168.739 36.4895 168.9 36.0327C169.049 35.576 169.136 35.0329 169.136 34.4033V29.0955H168.13Z" fill="white"/>
<path d="M38 37.9529H39.6851V34.5787H41.4445C42.0723 34.5787 42.6257 34.4682 43.1048 34.2474C43.5839 34.0183 43.9598 33.687 44.2324 33.2535C44.5132 32.82 44.6536 32.3005 44.6536 31.6952C44.6536 31.0735 44.5173 30.55 44.2448 30.1247C43.9722 29.6993 43.5922 29.3762 43.1048 29.1553C42.6257 28.9263 42.0723 28.8118 41.4445 28.8118H38V37.9529ZM39.6851 33.1063V30.2842H41.4693C41.9236 30.2842 42.2871 30.411 42.5597 30.6646C42.8322 30.9181 42.9685 31.2617 42.9685 31.6952C42.9685 32.1206 42.8322 32.4641 42.5597 32.7259C42.2871 32.9795 41.9236 33.1063 41.4693 33.1063H39.6851Z" fill="white"/>
<path d="M50.3975 38.1001C51.05 38.1001 51.6448 37.9529 52.1817 37.6584C52.7186 37.3558 53.1481 36.9427 53.4703 36.4192C53.7924 35.8875 53.9535 35.2862 53.9535 34.6155C53.9535 33.9447 53.7924 33.3476 53.4703 32.8241C53.1564 32.3005 52.731 31.8875 52.1941 31.5848C51.6572 31.2821 51.0583 31.1308 50.3975 31.1308C49.7284 31.1308 49.1254 31.2821 48.5885 31.5848C48.0516 31.8875 47.622 32.3005 47.2999 32.8241C46.986 33.3476 46.829 33.9447 46.829 34.6155C46.829 35.2862 46.986 35.8834 47.2999 36.4069C47.622 36.9304 48.0516 37.3435 48.5885 37.6461C49.1337 37.9488 49.7367 38.1001 50.3975 38.1001ZM50.3975 36.6277C50.034 36.6277 49.7077 36.5419 49.4186 36.3701C49.1378 36.1983 48.9148 35.9611 48.7496 35.6584C48.5926 35.3476 48.5141 34.9999 48.5141 34.6155C48.5141 34.231 48.5926 33.8875 48.7496 33.5848C48.9148 33.2821 49.1378 33.0449 49.4186 32.8731C49.7077 32.6932 50.034 32.6032 50.3975 32.6032C50.7609 32.6032 51.0789 32.6932 51.3515 32.8731C51.6324 33.0449 51.8513 33.2821 52.0082 33.5848C52.1734 33.8875 52.256 34.231 52.256 34.6155C52.256 34.9999 52.1734 35.3476 52.0082 35.6584C51.8513 35.9611 51.6324 36.1983 51.3515 36.3701C51.0789 36.5419 50.7609 36.6277 50.3975 36.6277Z" fill="white"/>
<path d="M58.2064 37.9529H59.6437L61.2297 33.4498L62.7909 37.9529H64.2406L66.5576 31.278H64.8477L63.4352 35.4744L61.9483 31.278H60.5111L59.0118 35.4866L57.5993 31.278H55.8894L58.2064 37.9529Z" fill="white"/>
<path d="M71.9686 38.1001C72.6542 38.1001 73.2531 37.9488 73.7652 37.6461C74.2856 37.3353 74.6491 36.9427 74.8556 36.4682L73.5422 35.8302C73.3935 36.0838 73.187 36.2924 72.9227 36.456C72.6666 36.6114 72.3527 36.6891 71.981 36.6891C71.4937 36.6891 71.0848 36.5419 70.7544 36.2474C70.4239 35.9529 70.234 35.5603 70.1844 35.0695H75.0414C75.0745 34.9795 75.0951 34.8772 75.1034 34.7627C75.1199 34.64 75.1282 34.5173 75.1282 34.3946C75.1282 33.7975 75.0001 33.2535 74.7441 32.7627C74.488 32.2719 74.1163 31.8793 73.6289 31.5848C73.1416 31.2821 72.5468 31.1308 71.8447 31.1308C71.2169 31.1308 70.647 31.2821 70.1348 31.5848C69.631 31.8875 69.2303 32.3005 68.933 32.8241C68.6439 33.3394 68.4993 33.9324 68.4993 34.6032C68.4993 35.2494 68.6439 35.8384 68.933 36.3701C69.2221 36.9018 69.6268 37.323 70.1472 37.6339C70.6676 37.9447 71.2747 38.1001 71.9686 38.1001ZM71.8447 32.456C72.2742 32.456 72.6294 32.5868 72.9103 32.8486C73.1994 33.1022 73.3605 33.4335 73.3935 33.8425H70.2216C70.3124 33.4007 70.5024 33.0613 70.7915 32.8241C71.0889 32.5787 71.44 32.456 71.8447 32.456Z" fill="white"/>
<path d="M77.8041 37.9529H79.4273V34.2351C79.4273 33.7279 79.5677 33.3353 79.8485 33.0572C80.1376 32.7709 80.5094 32.6277 80.9637 32.6277H81.546V31.2044H81.1495C80.7365 31.2044 80.3731 31.278 80.0592 31.4253C79.7453 31.5725 79.5016 31.8384 79.3281 32.2228V31.278H77.8041V37.9529Z" fill="white"/>
<path d="M87.0807 38.1001C87.7663 38.1001 88.3652 37.9488 88.8773 37.6461C89.3977 37.3353 89.7611 36.9427 89.9676 36.4682L88.6543 35.8302C88.5056 36.0838 88.2991 36.2924 88.0347 36.456C87.7787 36.6114 87.4648 36.6891 87.0931 36.6891C86.6057 36.6891 86.1968 36.5419 85.8664 36.2474C85.536 35.9529 85.346 35.5603 85.2965 35.0695H90.1535C90.1865 34.9795 90.2072 34.8772 90.2154 34.7627C90.232 34.64 90.2402 34.5173 90.2402 34.3946C90.2402 33.7975 90.1122 33.2535 89.8561 32.7627C89.6001 32.2719 89.2283 31.8793 88.741 31.5848C88.2536 31.2821 87.6589 31.1308 86.9568 31.1308C86.329 31.1308 85.759 31.2821 85.2469 31.5848C84.743 31.8875 84.3424 32.3005 84.045 32.8241C83.7559 33.3394 83.6114 33.9324 83.6114 34.6032C83.6114 35.2494 83.7559 35.8384 84.045 36.3701C84.3341 36.9018 84.7389 37.323 85.2593 37.6339C85.7797 37.9447 86.3868 38.1001 87.0807 38.1001ZM86.9568 32.456C87.3863 32.456 87.7415 32.5868 88.0224 32.8486C88.3115 33.1022 88.4725 33.4335 88.5056 33.8425H85.3336C85.4245 33.4007 85.6145 33.0613 85.9036 32.8241C86.201 32.5787 86.552 32.456 86.9568 32.456Z" fill="white"/>
<path d="M96.051 38.1001C96.4888 38.1001 96.8935 38.0265 97.2652 37.8793C97.6369 37.7239 97.9467 37.503 98.1945 37.2167V37.9529H99.7309V28.6646H98.1078V31.9529C97.6039 31.4048 96.9142 31.1308 96.0386 31.1308C95.4025 31.1308 94.8243 31.2862 94.3039 31.5971C93.7918 31.8997 93.387 32.3169 93.0897 32.8486C92.7923 33.3721 92.6436 33.9611 92.6436 34.6155C92.6436 35.2699 92.7923 35.8629 93.0897 36.3946C93.387 36.9181 93.7918 37.3353 94.3039 37.6461C94.8161 37.9488 95.3984 38.1001 96.051 38.1001ZM96.2244 36.6277C95.861 36.6277 95.5347 36.5419 95.2456 36.3701C94.9565 36.1983 94.7293 35.9611 94.5641 35.6584C94.4072 35.3476 94.3287 34.9999 94.3287 34.6155C94.3287 34.231 94.4072 33.8875 94.5641 33.5848C94.7293 33.2821 94.9565 33.0449 95.2456 32.8731C95.5347 32.6932 95.861 32.6032 96.2244 32.6032C96.5879 32.6032 96.91 32.6891 97.1909 32.8609C97.48 33.0326 97.703 33.2699 97.86 33.5725C98.0252 33.8752 98.1078 34.2228 98.1078 34.6155C98.1078 35.0081 98.0252 35.3558 97.86 35.6584C97.703 35.9611 97.48 36.1983 97.1909 36.3701C96.91 36.5419 96.5879 36.6277 96.2244 36.6277Z" fill="white"/>
<path d="M111.662 38.1001C112.315 38.1001 112.897 37.9488 113.409 37.6461C113.921 37.3353 114.326 36.9181 114.623 36.3946C114.921 35.8629 115.069 35.2699 115.069 34.6155C115.069 33.9611 114.921 33.3721 114.623 32.8486C114.326 32.3169 113.921 31.8997 113.409 31.5971C112.897 31.2862 112.319 31.1308 111.674 31.1308C110.799 31.1308 110.109 31.4048 109.605 31.9529V28.6646H107.982V37.9529H109.506V37.2044C109.754 37.4907 110.064 37.7116 110.435 37.867C110.815 38.0224 111.224 38.1001 111.662 38.1001ZM111.476 36.6277C111.121 36.6277 110.799 36.5419 110.51 36.3701C110.229 36.1983 110.006 35.9611 109.841 35.6584C109.684 35.3558 109.605 35.0081 109.605 34.6155C109.605 34.2228 109.684 33.8752 109.841 33.5725C110.006 33.2699 110.229 33.0326 110.51 32.8609C110.799 32.6891 111.121 32.6032 111.476 32.6032C111.848 32.6032 112.174 32.6932 112.455 32.8731C112.744 33.0449 112.971 33.2821 113.136 33.5848C113.302 33.8875 113.384 34.231 113.384 34.6155C113.384 34.9999 113.302 35.3476 113.136 35.6584C112.971 35.9611 112.744 36.1983 112.455 36.3701C112.174 36.5419 111.848 36.6277 111.476 36.6277Z" fill="white"/>
<path d="M118.449 40.6646C119.085 40.6646 119.614 40.4846 120.035 40.1247C120.465 39.7729 120.807 39.274 121.063 38.6277L124 31.278H122.241L120.506 35.8793L118.759 31.278H117.012L119.676 37.9529L119.527 38.3087C119.395 38.5868 119.242 38.8118 119.069 38.9836C118.903 39.1553 118.635 39.2412 118.263 39.2412C118.131 39.2412 117.991 39.229 117.842 39.2044C117.693 39.1881 117.561 39.1635 117.445 39.1308V40.4805C117.586 40.5459 117.743 40.5909 117.916 40.6155C118.09 40.6482 118.267 40.6646 118.449 40.6646Z" fill="white"/>
</svg>
