<svg width="38" height="11" viewBox="0 0 38 11" fill="none" xmlns="http://www.w3.org/2000/svg">
<path d="M5.32929 5.21365C5.05599 5.00381 4.74543 4.81865 4.41002 4.68286C4.08703 4.55942 3.76404 4.43599 3.44106 4.32489C3.18018 4.23848 2.91931 4.15208 2.6957 4.05333C2.47209 3.96692 2.28576 3.86817 2.12426 3.75707C1.97519 3.65832 1.86339 3.53488 1.78885 3.3991C1.71432 3.27566 1.67705 3.11519 1.67705 2.91769C1.67705 2.59675 1.78885 2.33752 2.02488 2.12768C2.27333 1.91783 2.70812 1.80674 3.31683 1.80674C3.63982 1.80674 3.9628 1.84377 4.27337 1.90549C4.58393 1.97955 4.85723 2.06596 5.09326 2.17705L5.41625 2.33752L5.87588 0.93032L5.63985 0.806881C5.32929 0.64641 4.96903 0.522971 4.58393 0.436564C4.21126 0.350157 3.77646 0.300781 3.31683 0.300781C2.77024 0.300781 2.28575 0.362501 1.88823 0.498284C1.47829 0.621723 1.13046 0.806881 0.857158 1.04141C0.583861 1.27595 0.3851 1.5722 0.248452 1.90549C0.124226 2.22643 0.0621129 2.57206 0.0621129 2.94237C0.0621129 3.3991 0.149071 3.80645 0.33541 4.12739C0.509326 4.44833 0.745355 4.7199 1.01865 4.92974C1.27953 5.12724 1.57767 5.30006 1.88823 5.43584C2.18637 5.55928 2.48452 5.67038 2.77024 5.75678C3.04353 5.84319 3.31683 5.9296 3.56528 6.016C3.78889 6.10241 4.00007 6.20116 4.17399 6.31226C4.33548 6.41101 4.45971 6.54679 4.54666 6.68257C4.63362 6.81836 4.67089 6.99117 4.67089 7.21336C4.67089 7.43555 4.63362 7.63305 4.54666 7.78118C4.47213 7.954 4.36033 8.07744 4.21126 8.17619C4.04976 8.28728 3.851 8.36134 3.62739 8.41072C3.37894 8.4601 3.11807 8.49713 2.81993 8.49713C2.38514 8.49713 1.98761 8.4601 1.6522 8.37369C1.31679 8.28728 1.03107 8.18853 0.795045 8.07744L0.472058 7.91696L0 9.33651L0.236029 9.45995C0.534171 9.62042 0.906849 9.7562 1.31679 9.85496C1.72674 9.95371 2.27333 10.0031 2.93173 10.0031C3.39136 10.0031 3.83858 9.95371 4.2361 9.84261C4.64605 9.73152 5.0063 9.5587 5.30444 9.33651C5.61501 9.10198 5.85104 8.80572 6.02495 8.4601C6.19887 8.11447 6.28583 7.69477 6.28583 7.23805C6.28583 6.76898 6.19887 6.36163 6.01253 6.02835C5.83861 5.71975 5.61501 5.43584 5.32929 5.21365Z" fill="white"/>
<path d="M14.9946 6.06499C14.9946 6.90437 14.8206 7.52157 14.4728 7.90423C14.1374 8.27454 13.6405 8.4597 12.9821 8.4597C12.3237 8.4597 11.8392 8.27454 11.4914 7.90423C11.1436 7.52157 10.9696 6.90437 10.9696 6.06499V0.423828H9.34229V6.05264C9.34229 6.71921 9.42924 7.29938 9.59074 7.78079C9.76465 8.27454 10.0131 8.69424 10.3237 9.02752C10.6467 9.36081 11.0442 9.62003 11.4914 9.7805C11.9386 9.94097 12.4355 10.015 12.9821 10.015C13.5287 10.015 14.0256 9.94097 14.4728 9.7805C14.9324 9.62003 15.3175 9.37315 15.6405 9.02752C15.9635 8.69424 16.212 8.27454 16.3735 7.78079C16.535 7.29938 16.6219 6.71921 16.6219 6.05264V0.423828H14.9821V6.06499H14.9946Z" fill="white"/>
<path d="M28.2119 0.732422H27.0318L23.392 4.65778V5.13919L27.1312 9.57065H28.361L24.3858 4.86763L28.2119 0.732422Z" fill="white"/>
<path d="M21.4418 0.732422H20.4356V9.57065H21.4418V0.732422Z" fill="white"/>
<path d="M36.9937 0.732422V6.05264C36.9937 6.97843 36.7949 7.66969 36.3974 8.10173C35.9998 8.54611 35.4284 8.7683 34.6706 8.7683C33.9253 8.7683 33.3538 8.54611 32.9439 8.10173C32.5464 7.65735 32.3476 6.97843 32.3476 6.05264V0.732422H31.3414V6.0403C31.3414 6.66984 31.4159 7.21297 31.5774 7.66969C31.7265 8.12642 31.9501 8.49673 32.2482 8.80533C32.5339 9.10158 32.8942 9.32377 33.2917 9.4719C33.7017 9.62003 34.1613 9.69409 34.6706 9.69409C35.18 9.69409 35.6396 9.62003 36.0495 9.4719C36.4595 9.32377 36.8073 9.10158 37.093 8.80533C37.3788 8.50908 37.6024 8.12642 37.7639 7.66969C37.9129 7.21297 37.9999 6.66984 37.9999 6.0403V0.732422H36.9937Z" fill="white"/>
</svg>
