<svg fill="none" xmlns="http://www.w3.org/2000/svg">
<path d="M7.35401 0.469555C8.22651 0.456055 9.09401 0.464055 9.96051 0.456055C10.013 1.47655 10.38 2.51605 11.127 3.23755C11.8725 3.97705 12.927 4.31555 13.953 4.43005V7.11455C12.9915 7.08306 12.0255 6.88305 11.153 6.46905C10.773 6.29705 10.419 6.07555 10.0725 5.84905C10.068 7.79705 10.0805 9.74255 10.06 11.6826C10.008 12.6146 9.70051 13.5421 9.15851 14.3101C8.28651 15.5886 6.77301 16.4221 5.21851 16.4481C4.26501 16.5026 3.31251 16.2426 2.50001 15.7636C1.15351 14.9696 0.206013 13.5161 0.0680128 11.9561C0.0506302 11.6257 0.0479609 11.2947 0.0600128 10.9641C0.180013 9.69555 0.807513 8.48205 1.78151 7.65655C2.88551 6.69505 4.43201 6.23705 5.88001 6.50805C5.89351 7.49555 5.85401 8.48205 5.85401 9.46955C5.19251 9.25556 4.41951 9.31555 3.84151 9.71705C3.41863 9.99564 3.09906 10.4055 2.93201 10.8836C2.79401 11.2216 2.83351 11.5971 2.84151 11.9561C3.00001 13.0501 4.05201 13.9696 5.17501 13.8701C5.91951 13.8621 6.63301 13.4301 7.02101 12.7976C7.14651 12.5761 7.28701 12.3496 7.29451 12.0891C7.36001 10.8966 7.33401 9.70905 7.34201 8.51655C7.34751 5.82905 7.33401 3.14905 7.35451 0.470055L7.35401 0.469555Z" />
</svg>
