<svg id="svg18" version="1.1" width="113" height="41" viewBox="0 0 113 41" xmlns="http://www.w3.org/2000/svg" xmlns:xlink="http://www.w3.org/1999/xlink">
 <g id="g1229" transform="matrix(.14131 0 0 .14131 148.63 8.1786)">
  <path id="path1203-3" d="m-568.88 230.83c-9.8814-2.6567-16.211-8.1975-20.98-18.366-2.3077-4.9202-2.6011-6.7863-2.6011-16.546 0-9.7953 0.28859-11.615 2.6352-16.62 3.5739-7.6221 8.9198-13.271 15.699-16.587 4.6829-2.2911 6.9448-2.7604 13.161-2.7305 8.0765 0.0389 12.237 1.543 17.256 6.2388l2.75 2.5729v-7.3742h25v69h-25v-6.9868l-4.4556 3.401c-2.5921 1.9786-6.5859 3.8579-9.5492 4.4934-6.2879 1.3485-7.1701 1.3171-13.914-0.49607zm23.603-23.984c8.6114-6.5682 5.7926-21.406-4.6614-24.539-15.021-4.5004-25.784 13.967-14.233 24.421 4.7231 4.2743 13.373 4.328 18.894 0.11718zm143.32 24.256c-16.117-3.664-26.1-15.237-27.673-32.08-1.0579-11.329 4.5558-25.444 12.438-31.271 10.511-7.7708 23.552-10.014 36.197-6.2253l4.0385 1.21v10.949c0 10.025-0.1477 10.89-1.75 10.256-0.9625-0.38106-4.0971-1.1939-6.9658-1.8062-4.5277-0.96651-5.8334-0.85624-9.8971 0.83586-5.7517 2.395-8.4674 5.8683-9.0578 11.585-0.56407 5.4615 2.0254 10.559 6.7818 13.351 4.2376 2.4874 12.999 2.5515 17.672 0.12923l3.2832-1.7018-0.5663 22.388-3.7616 1.3004c-5.7858 2.0002-14.659 2.4624-20.738 1.0803zm58-0.0366c-7.6208-1.7889-11.805-3.8085-16.689-8.0555-7.9388-6.9033-12.112-20.5-10.156-33.091 3.2845-21.147 23.806-34.45 44.86-29.083 16.23 4.1377 25.985 17.001 25.985 34.264v6.3185h-23.333c-12.833 0-23.597 0.26326-23.918 0.58501-1.1428 1.1428 1.49 6.4485 4.134 8.3312 4.0815 2.9063 9.1531 3.5102 13.706 1.6322 2.1514-0.88746 4.4162-2.2807 5.033-3.0961 0.96728-1.2789 2.5815-0.91665 11.751 2.6371l10.63 4.1196-3.0958 3.9087c-3.2624 4.1192-9.6127 8.3258-15.771 10.448-5.8157 2.0037-16.982 2.5255-23.135 1.0812zm20.201-45.147c-0.16459-1.1-1.6342-3.2375-3.2658-4.75-2.497-2.3147-3.8468-2.75-8.5277-2.75-4.8132 0-5.9543 0.39314-8.4842 2.9231-1.6077 1.6077-2.9231 3.872-2.9231 5.0317 0 2.0412 0.37577 2.0996 11.75 1.8269 11.106-0.26629 11.734-0.39144 11.451-2.2817zm-431.2 20v-24.5h-10v-20h10v-4.8185c0-19.289 16.78-32.275 36.434-28.195l5.5665 1.1556v19.579l-5.9728-0.11054c-5.1511-0.0953-6.3248 0.24082-8.531 2.4432-1.407 1.4046-2.8281 4.2171-3.158 6.25l-0.59981 3.6962h17.262v20h-17v49h-24zm51-10v-34.5h24v69h-24zm35 0v-34.5h25v8.4457l2.8487-3.119c4.6347-5.0743 8.7885-6.7707 16.651-6.8004 5.8666-0.0221 7.7585 0.41949 11.685 2.7275 10.497 6.1705 11.815 10.945 11.815 42.781v24.965h-25v-21.444c0-20.892-0.0588-21.513-2.2844-24.1-3.1682-3.6832-8.9258-3.6993-12.593-0.0352l-2.6227 2.6206-0.61022 42.959h-24.89zm164 0v-34.5h24v3.5c0 1.925 0.28296 3.5 0.6288 3.5s2.3251-1.5325 4.3983-3.4055c10.47-9.4587 28.422-6.0201 35.252 6.7523 2.1132 3.9517 2.236 5.476 2.5298 31.403l0.30878 27.25h-24.118v-20.032c0-23.133-0.70535-26.301-6.1794-27.758-4.2815-1.1392-8.4348 0.27193-10.624 3.6096-1.4269 2.1756-1.7505 5.8948-2.0342 23.384l-0.33738 20.797h-23.825zm-513.01-35.231c-0.01-0.42282 4.084-10.486 9.0927-22.362l9.1068-21.593-52.045-122.81 23.109-0.26887c13.395-0.15586 23.349 0.1199 23.68 0.65601 0.3144 0.50869 6.6418 16.474 14.061 35.479 7.4191 19.005 13.8 34.234 14.18 33.844 0.37968-0.39042 6.7998-16.201 14.267-35.134 7.4672-18.933 13.732-34.579 13.922-34.769s10.466-0.22423 22.836-0.0762l22.491 0.26915-69.288 167-22.7 0.26877c-12.485 0.14783-22.706-0.0772-22.714-0.5zm319.25-8.2634c-6.5582-3.9986-8.7849-10.949-5.6344-17.589 2.4539-5.1712 7.3966-7.7671 13.645-7.1667 4.2738 0.41066 5.6635 1.081 8.3756 4.0404 4.2551 4.6431 5.1616 9.4334 2.7256 14.403-3.712 7.5724-12.361 10.429-19.112 6.3121zm-163.27-34.044c-13.119-1.9788-23.53-7.5262-32.877-17.518-11.3-12.08-17.096-27.655-17.096-45.943 0-19.535 5.991-34.534 18.98-47.517 8.9086-8.9044 17.249-13.403 29.219-15.762 14.022-2.7625 29.439 0.93834 38.677 9.2845l4.125 3.7266v-11.273l41.5 0.54058 0.25775 60.75 0.25774 60.75h-42.015v-10.207l-3.5369 3.1054c-9.2482 8.12-24.043 12.091-37.49 10.063zm26.698-40.586c9.2658-3.2878 16.382-15.864 14.831-26.208-2.3277-15.522-17.032-25.062-31.947-20.726-13.562 3.9427-21.048 17.473-17.128 30.958 4.271 14.692 18.783 21.462 34.244 15.976zm253.09 40.578c-21.459-2.5005-40.541-15.575-49.638-34.011-12.032-24.383-8.144-53.842 9.6418-73.053 30.522-32.967 88.291-25.095 107.22 14.611 5.2234 10.958 6.5276 17.067 6.404 30-0.0861 9.015-0.58743 12.482-2.7778 19.215-9.5252 29.276-38.567 47-70.848 43.238zm16.382-40.113c5.0326-1.5078 11.357-6.9736 14.113-12.197 3.0328-5.7478 3.0586-16.506 0.0531-22.143-6.6302-12.436-20.715-17.088-33.079-10.927-15.277 7.6131-17.621 29.429-4.3568 40.565 6.6351 5.5705 14.837 7.2277 23.269 4.7014zm121.62 40.113c-37.406-4.3588-62.626-38.978-55.365-75.999 2.1571-10.998 7.9216-22.757 14.977-30.551 17.862-19.731 48.347-26.54 74.081-16.548 35.333 13.72 50.352 53.778 33.387 89.044-11.329 23.55-38.564 37.376-67.079 34.053zm16.382-40.113c5.0326-1.5078 11.357-6.9736 14.113-12.197 2.8899-5.4769 3.0517-16.407 0.32518-21.963-4.2717-8.7052-12.255-13.636-22.08-13.636-14.168 0-23.941 9.9828-23.941 24.456 0 8.3475 2.361 13.641 8.3128 18.638 6.6351 5.5705 14.837 7.2277 23.269 4.7014zm85.858 39.229c-13.421-2.691-22.385-13.731-22.385-27.568 0-8.4678 2.4286-14.543 8.0677-20.182 5.5249-5.5249 10.554-7.6643 19.129-8.1383 17.11-0.94579 29.169 10.349 29.169 27.321 0 13.861-8.1664 24.49-21.48 27.958-6.3418 1.6518-7.1182 1.6898-12.501 0.61049zm-423-90.068v-85.292h43v62.525l4.13-3.7312c19.671-17.771 53.772-11.432 64.494 11.989 4.8887 10.678 5.3399 15.794 5.3586 60.76l0.0174 41.75h-42.908l-0.29603-36.75c-0.28101-34.885-0.40099-36.953-2.3647-40.75-2.7381-5.2946-7.4159-7.7414-13.756-7.195-5.7591 0.49628-9.307 2.9144-12.107 8.2517-1.9631 3.7421-2.0838 5.7928-2.3652 40.193l-0.29657 36.25h-42.907zm512.81-85.292-22.787 52.792-22.787 55-25.73 0.26711c-20.451 0.21231-25.626 7e-3 -25.225-1 6.0434-15.186 45.604-107.06 45.604-107.06z"/>
 </g>
</svg>
