<svg width="24" height="24" viewBox="0 0 24 24" fill="none" xmlns="http://www.w3.org/2000/svg">
<mask id="mask0" mask-type="alpha" maskUnits="userSpaceOnUse" x="0" y="0" width="24" height="24">
<rect width="24" height="24" fill="#C4C4C4"/>
</mask>
<g mask="url(#mask0)">
<path d="M18.4363 9.3027C20.4394 10.5355 21.6684 12.2708 21.6068 14.1553C21.53 16.5053 19.4659 18.4928 16.4581 19.4996" stroke="black" stroke-width="2" stroke-linecap="round" stroke-linejoin="round"/>
<path d="M12.047 19.7095C6.54794 20.2213 1.83524 17.8985 1.52091 14.5213C1.33952 12.5725 2.66249 10.6984 4.87075 9.36339M12.047 19.7095L9.76104 17.25M12.047 19.7095L9.76104 22.125" stroke="black" stroke-width="2" stroke-linecap="round" stroke-linejoin="round"/>
<path d="M18.852 8.01655L15.4819 2.17934L8.7417 2.17934M18.852 8.01655L15.4819 13.8538L8.7417 13.8538M18.852 8.01655L12.1118 8.01655M8.7417 13.8538L5.37159 8.01655L8.7417 2.17934M8.7417 13.8538L12.1118 8.01655M8.7417 2.17934L12.1118 8.01655" stroke="black" stroke-width="2" stroke-linecap="round" stroke-linejoin="round"/>
</g>
</svg>
