<svg width="24" height="24" viewBox="0 0 24 24" xmlns="http://www.w3.org/2000/svg">
<mask id="path-1-outside-1" maskUnits="userSpaceOnUse" x="1" y="1" width="22" height="22" >
<rect  x="1" y="1" width="22" height="22"/>
<path fill-rule="evenodd" clip-rule="evenodd" d="M7.39451 17.44C7.632 17.44 7.86949 17.469 8.10179 17.529C8.80286 17.711 9.41162 18.163 9.77252 18.77C10.0069 19.151 10.1365 19.596 10.1407 20.05C10.1407 20.7 10.682 21.221 11.3478 21.221H12.6473C13.31 21.221 13.8513 20.703 13.8545 20.064C13.8503 19.358 14.1365 18.687 14.6603 18.182C15.1767 17.684 15.8985 17.385 16.6203 17.405C17.0933 17.416 17.5485 17.539 17.9499 17.759C18.5275 18.078 19.2649 17.888 19.5988 17.338L20.2874 16.231C20.4409 15.976 20.4855 15.656 20.4036 15.361C20.3227 15.066 20.1194 14.81 19.8457 14.659C19.2047 14.303 18.7474 13.729 18.5576 13.041C18.3699 12.366 18.4726 11.629 18.8387 11.022C19.0772 10.622 19.4267 10.285 19.8457 10.053C20.4077 9.736 20.6048 9.027 20.2781 8.475C20.2646 8.453 20.2522 8.43 20.2418 8.406L19.6341 7.39C19.3033 6.835 18.5669 6.644 17.9893 6.961C17.365 7.317 16.6224 7.419 15.9089 7.238C15.1964 7.06 14.5991 6.625 14.2268 6.011C13.9882 5.627 13.8586 5.18 13.8545 4.725C13.8638 4.383 13.7393 4.076 13.5133 3.851C13.2882 3.627 12.9719 3.5 12.6473 3.5H11.3478C11.0263 3.5 10.7256 3.621 10.4985 3.839C10.2724 4.058 10.149 4.349 10.1511 4.659C10.1293 6.121 8.88997 7.298 7.38932 7.298C6.90812 7.293 6.44454 7.168 6.04216 6.936C5.47695 6.626 4.73855 6.817 4.40772 7.372L3.70562 8.485C3.38413 9.023 3.58117 9.734 4.15364 10.055C5.00301 10.529 5.53295 11.413 5.53295 12.361C5.53295 13.309 5.00301 14.192 4.15157 14.667C3.58221 14.985 3.38517 15.692 3.71496 16.242L4.36935 17.33C4.53114 17.611 4.79559 17.814 5.10153 17.897C5.40643 17.979 5.74244 17.944 6.02245 17.794C6.43417 17.561 6.9133 17.44 7.39451 17.44ZM12.648 22.721H11.3485C9.82508 22.721 8.58577 21.527 8.58577 20.058C8.5837 19.877 8.52977 19.689 8.42917 19.526C8.26635 19.252 8.00293 19.056 7.69907 18.978C7.39728 18.9 7.06645 18.943 6.79474 19.095C6.14345 19.445 5.37705 19.53 4.67599 19.34C3.97596 19.149 3.37135 18.685 3.01667 18.07L2.36849 16.993C1.61039 15.725 2.06152 14.1 3.37446 13.368C3.74677 13.161 3.97804 12.775 3.97804 12.361C3.97804 11.947 3.74677 11.56 3.37446 11.353C2.06048 10.617 1.61039 8.988 2.36746 7.72L3.0706 6.607C3.81833 5.353 5.50876 4.911 6.82689 5.641C7.0063 5.744 7.20127 5.796 7.39935 5.798C8.04545 5.798 8.58577 5.284 8.59614 4.652C8.59199 3.955 8.87719 3.286 9.39676 2.781C9.91841 2.277 10.6112 2 11.3485 2H12.648C13.3905 2 14.1124 2.294 14.6299 2.805C15.1463 3.319 15.4315 4.024 15.4097 4.739C15.4118 4.9 15.4668 5.086 15.5663 5.249C15.7312 5.519 15.9915 5.709 16.3006 5.787C16.6096 5.861 16.9332 5.821 17.208 5.664C18.5355 4.933 20.2249 5.371 20.983 6.641L21.6291 7.72C21.6457 7.749 21.6602 7.777 21.6726 7.806C22.3592 9.057 21.9008 10.632 20.6252 11.351C20.4396 11.454 20.2892 11.598 20.1855 11.772C20.0247 12.041 19.9801 12.361 20.061 12.655C20.144 12.955 20.3421 13.204 20.621 13.358C21.2506 13.707 21.7204 14.295 21.9081 14.974C22.0958 15.652 21.9931 16.388 21.627 16.995L20.9384 18.101C20.1803 19.357 18.4909 19.792 17.1769 19.06C17.0016 18.963 16.7994 18.91 16.5982 18.905H16.592C16.2923 18.905 15.9843 19.028 15.7603 19.243C15.5331 19.462 15.4087 19.754 15.4108 20.064C15.4035 21.533 14.1642 22.721 12.648 22.721Z"/>
</mask>
<path fill-rule="evenodd" clip-rule="evenodd" d="M7.39451 17.44C7.632 17.44 7.86949 17.469 8.10179 17.529C8.80286 17.711 9.41162 18.163 9.77252 18.77C10.0069 19.151 10.1365 19.596 10.1407 20.05C10.1407 20.7 10.682 21.221 11.3478 21.221H12.6473C13.31 21.221 13.8513 20.703 13.8545 20.064C13.8503 19.358 14.1365 18.687 14.6603 18.182C15.1767 17.684 15.8985 17.385 16.6203 17.405C17.0933 17.416 17.5485 17.539 17.9499 17.759C18.5275 18.078 19.2649 17.888 19.5988 17.338L20.2874 16.231C20.4409 15.976 20.4855 15.656 20.4036 15.361C20.3227 15.066 20.1194 14.81 19.8457 14.659C19.2047 14.303 18.7474 13.729 18.5576 13.041C18.3699 12.366 18.4726 11.629 18.8387 11.022C19.0772 10.622 19.4267 10.285 19.8457 10.053C20.4077 9.736 20.6048 9.027 20.2781 8.475C20.2646 8.453 20.2522 8.43 20.2418 8.406L19.6341 7.39C19.3033 6.835 18.5669 6.644 17.9893 6.961C17.365 7.317 16.6224 7.419 15.9089 7.238C15.1964 7.06 14.5991 6.625 14.2268 6.011C13.9882 5.627 13.8586 5.18 13.8545 4.725C13.8638 4.383 13.7393 4.076 13.5133 3.851C13.2882 3.627 12.9719 3.5 12.6473 3.5H11.3478C11.0263 3.5 10.7256 3.621 10.4985 3.839C10.2724 4.058 10.149 4.349 10.1511 4.659C10.1293 6.121 8.88997 7.298 7.38932 7.298C6.90812 7.293 6.44454 7.168 6.04216 6.936C5.47695 6.626 4.73855 6.817 4.40772 7.372L3.70562 8.485C3.38413 9.023 3.58117 9.734 4.15364 10.055C5.00301 10.529 5.53295 11.413 5.53295 12.361C5.53295 13.309 5.00301 14.192 4.15157 14.667C3.58221 14.985 3.38517 15.692 3.71496 16.242L4.36935 17.33C4.53114 17.611 4.79559 17.814 5.10153 17.897C5.40643 17.979 5.74244 17.944 6.02245 17.794C6.43417 17.561 6.9133 17.44 7.39451 17.44ZM12.648 22.721H11.3485C9.82508 22.721 8.58577 21.527 8.58577 20.058C8.5837 19.877 8.52977 19.689 8.42917 19.526C8.26635 19.252 8.00293 19.056 7.69907 18.978C7.39728 18.9 7.06645 18.943 6.79474 19.095C6.14345 19.445 5.37705 19.53 4.67599 19.34C3.97596 19.149 3.37135 18.685 3.01667 18.07L2.36849 16.993C1.61039 15.725 2.06152 14.1 3.37446 13.368C3.74677 13.161 3.97804 12.775 3.97804 12.361C3.97804 11.947 3.74677 11.56 3.37446 11.353C2.06048 10.617 1.61039 8.988 2.36746 7.72L3.0706 6.607C3.81833 5.353 5.50876 4.911 6.82689 5.641C7.0063 5.744 7.20127 5.796 7.39935 5.798C8.04545 5.798 8.58577 5.284 8.59614 4.652C8.59199 3.955 8.87719 3.286 9.39676 2.781C9.91841 2.277 10.6112 2 11.3485 2H12.648C13.3905 2 14.1124 2.294 14.6299 2.805C15.1463 3.319 15.4315 4.024 15.4097 4.739C15.4118 4.9 15.4668 5.086 15.5663 5.249C15.7312 5.519 15.9915 5.709 16.3006 5.787C16.6096 5.861 16.9332 5.821 17.208 5.664C18.5355 4.933 20.2249 5.371 20.983 6.641L21.6291 7.72C21.6457 7.749 21.6602 7.777 21.6726 7.806C22.3592 9.057 21.9008 10.632 20.6252 11.351C20.4396 11.454 20.2892 11.598 20.1855 11.772C20.0247 12.041 19.9801 12.361 20.061 12.655C20.144 12.955 20.3421 13.204 20.621 13.358C21.2506 13.707 21.7204 14.295 21.9081 14.974C22.0958 15.652 21.9931 16.388 21.627 16.995L20.9384 18.101C20.1803 19.357 18.4909 19.792 17.1769 19.06C17.0016 18.963 16.7994 18.91 16.5982 18.905H16.592C16.2923 18.905 15.9843 19.028 15.7603 19.243C15.5331 19.462 15.4087 19.754 15.4108 20.064C15.4035 21.533 14.1642 22.721 12.648 22.721Z" />
<path d="M8.10179 17.529L8.15205 17.3354L8.15181 17.3354L8.10179 17.529ZM9.77252 18.77L9.60059 18.8722L9.60217 18.8748L9.77252 18.77ZM10.1407 20.05H10.3407L10.3407 20.0482L10.1407 20.05ZM13.8545 20.064L14.0545 20.065L14.0545 20.0628L13.8545 20.064ZM16.6203 17.405L16.6148 17.6049L16.6157 17.6049L16.6203 17.405ZM17.9499 17.759L18.0466 17.5839L18.046 17.5836L17.9499 17.759ZM19.5988 17.338L19.429 17.2324L19.4279 17.2342L19.5988 17.338ZM20.2874 16.231L20.4573 16.3367L20.4588 16.3341L20.2874 16.231ZM20.4036 15.361L20.2107 15.4139L20.2109 15.4145L20.4036 15.361ZM19.8457 14.659L19.7485 14.8338L19.7491 14.8341L19.8457 14.659ZM18.5576 13.041L18.7504 12.9878L18.7503 12.9874L18.5576 13.041ZM18.8387 11.022L19.0099 11.1253L19.0104 11.1244L18.8387 11.022ZM19.8457 10.053L19.9425 10.228L19.9439 10.2272L19.8457 10.053ZM20.2781 8.475L20.4503 8.37313L20.4486 8.3705L20.2781 8.475ZM20.2418 8.406L20.4254 8.32667L20.4202 8.31461L20.4135 8.30333L20.2418 8.406ZM19.6341 7.39L19.4623 7.4924L19.4625 7.49267L19.6341 7.39ZM17.9893 6.961L17.8931 6.78564L17.8902 6.78726L17.9893 6.961ZM15.9089 7.238L15.9581 7.04414L15.9574 7.04396L15.9089 7.238ZM14.2268 6.011L14.3978 5.90729L14.3967 5.90547L14.2268 6.011ZM13.8545 4.725L13.6544 4.71954L13.6545 4.72682L13.8545 4.725ZM13.5133 3.851L13.3722 3.99275L13.3722 3.99276L13.5133 3.851ZM10.4985 3.839L10.36 3.69471L10.3593 3.69535L10.4985 3.839ZM10.1511 4.659L10.3511 4.66198L10.3511 4.65766L10.1511 4.659ZM7.38932 7.298L7.38724 7.498H7.38932V7.298ZM6.04216 6.936L6.14208 6.7627L6.13833 6.76064L6.04216 6.936ZM4.40772 7.372L4.57693 7.47874L4.57952 7.4744L4.40772 7.372ZM3.70562 8.485L3.53642 8.37826L3.53394 8.38241L3.70562 8.485ZM4.15364 10.055L4.05582 10.2294L4.05618 10.2296L4.15364 10.055ZM4.15157 14.667L4.05413 14.4923L4.05404 14.4924L4.15157 14.667ZM3.71496 16.242L3.54343 16.3449L3.54357 16.3451L3.71496 16.242ZM4.36935 17.33L4.54271 17.2302L4.54074 17.2269L4.36935 17.33ZM5.10153 17.897L5.04916 18.09L5.04959 18.0901L5.10153 17.897ZM6.02245 17.794L6.11692 17.9703L6.12096 17.9681L6.02245 17.794ZM8.58577 20.058H8.78578L8.78576 20.0557L8.58577 20.058ZM8.42917 19.526L8.25721 19.6282L8.25897 19.631L8.42917 19.526ZM7.69907 18.978L7.64902 19.1716L7.64934 19.1717L7.69907 18.978ZM6.79474 19.095L6.88943 19.2712L6.89238 19.2695L6.79474 19.095ZM4.67599 19.34L4.62335 19.5329L4.62367 19.533L4.67599 19.34ZM3.01667 18.07L3.18995 17.9701L3.18803 17.9669L3.01667 18.07ZM2.36849 16.993L2.19683 17.0956L2.19713 17.0961L2.36849 16.993ZM3.37446 13.368L3.27727 13.1932L3.27707 13.1933L3.37446 13.368ZM3.37446 11.353L3.27672 11.5275L3.27727 11.5278L3.37446 11.353ZM2.36746 7.72L2.19832 7.61315L2.19574 7.61747L2.36746 7.72ZM3.0706 6.607L3.23974 6.71385L3.24238 6.70943L3.0706 6.607ZM6.82689 5.641L6.92648 5.46753L6.92378 5.46604L6.82689 5.641ZM7.39935 5.798L7.39734 5.998H7.39935V5.798ZM8.59614 4.652L8.79616 4.65528L8.79614 4.65081L8.59614 4.652ZM9.39676 2.781L9.2578 2.63717L9.25737 2.63758L9.39676 2.781ZM14.6299 2.805L14.7709 2.66324L14.7704 2.66269L14.6299 2.805ZM15.4097 4.739L15.2096 4.73291L15.2098 4.74158L15.4097 4.739ZM15.5663 5.249L15.737 5.14476L15.737 5.14475L15.5663 5.249ZM16.3006 5.787L16.2516 5.98093L16.254 5.9815L16.3006 5.787ZM17.208 5.664L17.1115 5.48879L17.1088 5.49034L17.208 5.664ZM20.983 6.641L20.8113 6.74351L20.8114 6.74375L20.983 6.641ZM21.6291 7.72L21.8027 7.62065L21.8007 7.61725L21.6291 7.72ZM21.6726 7.806L21.4889 7.88487L21.4927 7.89375L21.4973 7.90222L21.6726 7.806ZM20.6252 11.351L20.7222 11.5259L20.7234 11.5252L20.6252 11.351ZM20.1855 11.772L20.3572 11.8746L20.3573 11.8744L20.1855 11.772ZM20.061 12.655L19.8682 12.7081L19.8683 12.7083L20.061 12.655ZM20.621 13.358L20.718 13.1831L20.7177 13.1829L20.621 13.358ZM21.9081 14.974L21.7153 15.0273L21.7153 15.0274L21.9081 14.974ZM21.627 16.995L21.7968 17.1007L21.7983 17.0983L21.627 16.995ZM20.9384 18.101L20.7686 17.9953L20.7672 17.9976L20.9384 18.101ZM17.1769 19.06L17.2742 18.8853L17.2738 18.885L17.1769 19.06ZM16.5982 18.905L16.6032 18.705H16.5982V18.905ZM15.7603 19.243L15.6218 19.0987L15.6214 19.099L15.7603 19.243ZM15.4108 20.064L15.6108 20.065L15.6108 20.0627L15.4108 20.064ZM7.39451 17.64C7.6157 17.64 7.83636 17.667 8.05178 17.7226L8.15181 17.3354C7.90262 17.271 7.64829 17.24 7.39451 17.24V17.64ZM8.05154 17.7226C8.7031 17.8917 9.26743 18.3118 9.60061 18.8722L9.94443 18.6678C9.55581 18.0142 8.90261 17.5303 8.15205 17.3354L8.05154 17.7226ZM9.60217 18.8748C9.81758 19.225 9.93688 19.6344 9.94069 20.0518L10.3407 20.0482C10.3362 19.5576 10.1962 19.077 9.94287 18.6652L9.60217 18.8748ZM9.94069 20.05C9.94069 20.8166 10.5778 21.421 11.3478 21.421V21.021C10.7863 21.021 10.3407 20.5834 10.3407 20.05H9.94069ZM11.3478 21.421H12.6473V21.021H11.3478V21.421ZM12.6473 21.421C13.4128 21.421 14.0508 20.8211 14.0545 20.065L13.6545 20.063C13.6519 20.5849 13.2071 21.021 12.6473 21.021V21.421ZM14.0545 20.0628C14.0506 19.4131 14.3136 18.7941 14.7991 18.326L14.5214 18.038C13.9595 18.5799 13.65 19.3029 13.6545 20.0652L14.0545 20.0628ZM14.7991 18.326C15.2794 17.8628 15.95 17.5865 16.6148 17.6049L16.6259 17.2051C15.847 17.1835 15.0741 17.5052 14.5214 18.038L14.7991 18.326ZM16.6157 17.6049C17.0569 17.6152 17.4808 17.7299 17.8537 17.9344L18.046 17.5836C17.6163 17.3481 17.1296 17.2168 16.625 17.2051L16.6157 17.6049ZM17.8532 17.9341C18.5216 18.3032 19.3783 18.0865 19.7698 17.4418L19.4279 17.2342C19.1514 17.6895 18.5334 17.8528 18.0466 17.5839L17.8532 17.9341ZM19.7687 17.4436L20.4573 16.3366L20.1176 16.1254L19.429 17.2324L19.7687 17.4436ZM20.4588 16.3341C20.6408 16.0318 20.6928 15.6551 20.5963 15.3075L20.2109 15.4145C20.2782 15.6569 20.2411 15.9202 20.1161 16.1279L20.4588 16.3341ZM20.5965 15.3081C20.501 14.9599 20.2622 14.6604 19.9422 14.4839L19.7491 14.8341C19.9766 14.9596 20.1444 15.1721 20.2107 15.4139L20.5965 15.3081ZM19.9428 14.4842C19.3473 14.1534 18.9255 13.6224 18.7504 12.9878L18.3648 13.0942C18.5693 13.8356 19.0622 14.4526 19.7485 14.8338L19.9428 14.4842ZM18.7503 12.9874C18.5775 12.3662 18.6719 11.6858 19.0099 11.1253L18.6674 10.9187C18.2733 11.5722 18.1623 12.3658 18.3649 13.0946L18.7503 12.9874ZM19.0104 11.1244C19.2304 10.7555 19.5538 10.4432 19.9425 10.228L19.7488 9.87803C19.2996 10.1268 18.9239 10.4885 18.6669 10.9196L19.0104 11.1244ZM19.9439 10.2272C20.6012 9.85649 20.8354 9.02394 20.4502 8.37314L20.106 8.57686C20.3742 9.03006 20.2142 9.61551 19.7474 9.87879L19.9439 10.2272ZM20.4486 8.3705C20.4389 8.35455 20.4312 8.34004 20.4254 8.32667L20.0582 8.48533C20.0732 8.51996 20.0904 8.55145 20.1076 8.5795L20.4486 8.3705ZM20.4135 8.30333L19.8057 7.28733L19.4625 7.49267L20.0702 8.50867L20.4135 8.30333ZM19.8059 7.2876C19.4179 6.63663 18.5615 6.41882 17.8931 6.78567L18.0855 7.13633C18.5723 6.86918 19.1887 7.03337 19.4623 7.4924L19.8059 7.2876ZM17.8902 6.78726C17.3112 7.11742 16.6218 7.21252 15.9581 7.04414L15.8597 7.43186C16.623 7.62548 17.4187 7.51658 18.0884 7.13474L17.8902 6.78726ZM15.9574 7.04396C15.2946 6.87837 14.742 6.47492 14.3978 5.9073L14.0558 6.1147C14.4562 6.77508 15.0983 7.24163 15.8604 7.43204L15.9574 7.04396ZM14.3967 5.90547C14.1776 5.55275 14.0583 5.14165 14.0545 4.72318L13.6545 4.72682C13.6589 5.21835 13.7989 5.70125 14.0569 6.11653L14.3967 5.90547ZM14.0544 4.73046C14.0652 4.33474 13.9204 3.97407 13.6543 3.70924L13.3722 3.99276C13.5582 4.17793 13.6624 4.43126 13.6545 4.71954L14.0544 4.73046ZM13.6544 3.70925C13.3903 3.44647 13.0227 3.3 12.6473 3.3V3.7C12.9212 3.7 13.1861 3.80753 13.3722 3.99275L13.6544 3.70925ZM12.6473 3.3H11.3478V3.7H12.6473V3.3ZM11.3478 3.3C10.9753 3.3 10.6248 3.44057 10.36 3.69471L10.637 3.98329C10.8264 3.80143 11.0774 3.7 11.3478 3.7V3.3ZM10.3593 3.69535C10.0948 3.95163 9.94861 4.29471 9.95106 4.66034L10.3511 4.65766C10.3493 4.40329 10.45 4.16437 10.6376 3.98265L10.3593 3.69535ZM9.95108 4.65602C9.93102 6.00272 8.7868 7.098 7.38932 7.098V7.498C8.99314 7.498 10.3275 6.23928 10.351 4.66198L9.95108 4.65602ZM7.3914 7.09801C6.94345 7.09336 6.51373 6.97703 6.14205 6.76274L5.94226 7.10926C6.37535 7.35897 6.87278 7.49264 7.38724 7.49799L7.3914 7.09801ZM6.13833 6.76064C5.48116 6.4002 4.62329 6.61975 4.23593 7.2696L4.57952 7.4744C4.85381 7.01425 5.47274 6.8518 5.94598 7.11136L6.13833 6.76064ZM4.23857 7.26529L3.53647 8.37829L3.87478 8.59171L4.57688 7.47871L4.23857 7.26529ZM3.53394 8.38241C3.15175 9.02198 3.39018 9.8562 4.05582 10.2294L4.25146 9.88055C3.77217 9.6118 3.61651 9.02402 3.8773 8.58759L3.53394 8.38241ZM4.05618 10.2296C4.84453 10.6696 5.33295 11.4881 5.33295 12.361H5.73295C5.73295 11.3379 5.16148 10.3884 4.2511 9.88035L4.05618 10.2296ZM5.33295 12.361C5.33295 13.2337 4.84469 14.0513 4.05413 14.4923L4.249 14.8417C5.16132 14.3327 5.73295 13.3843 5.73295 12.361H5.33295ZM4.05404 14.4924C3.38958 14.8635 3.15359 15.6947 3.54343 16.3449L3.88648 16.1391C3.61674 15.6893 3.77485 15.1065 4.24909 14.8416L4.05404 14.4924ZM3.54357 16.3451L4.19796 17.4331L4.54074 17.2269L3.88634 16.1389L3.54357 16.3451ZM4.19603 17.4298C4.38404 17.7564 4.69184 17.9931 5.04916 18.09L5.15389 17.704C4.89934 17.6349 4.67823 17.4656 4.54268 17.2302L4.19603 17.4298ZM5.04959 18.0901C5.4022 18.185 5.79071 18.145 6.11689 17.9703L5.92801 17.6177C5.69417 17.743 5.41066 17.773 5.15347 17.7039L5.04959 18.0901ZM6.12096 17.9681C6.50113 17.7529 6.94606 17.64 7.39451 17.64V17.24C6.88054 17.24 6.36721 17.3691 5.92395 17.6199L6.12096 17.9681ZM12.648 22.521H11.3485V22.921H12.648V22.521ZM11.3485 22.521C9.92851 22.521 8.78577 21.4096 8.78577 20.058H8.38577C8.38577 21.6444 9.72164 22.921 11.3485 22.921V22.521ZM8.78576 20.0557C8.78326 19.8378 8.71871 19.6143 8.59937 19.421L8.25897 19.631C8.34083 19.7637 8.38413 19.9162 8.38578 20.0603L8.78576 20.0557ZM8.60111 19.4238C8.41123 19.1043 8.10385 18.8754 7.7488 18.7843L7.64934 19.1717C7.90202 19.2366 8.12147 19.3997 8.25724 19.6282L8.60111 19.4238ZM7.74912 18.7844C7.3974 18.6935 7.01368 18.7434 6.6971 18.9205L6.89238 19.2695C7.11922 19.1426 7.39716 19.1065 7.64902 19.1716L7.74912 18.7844ZM6.70006 18.9188C6.09391 19.2446 5.38011 19.3236 4.72831 19.147L4.62367 19.533C5.37399 19.7364 6.193 19.6454 6.88941 19.2712L6.70006 18.9188ZM4.72864 19.1471C4.07856 18.9697 3.51775 18.5385 3.18992 17.9701L2.84341 18.1699C3.22494 18.8315 3.87337 19.3283 4.62335 19.5329L4.72864 19.1471ZM3.18803 17.9669L2.53985 16.8899L2.19713 17.0961L2.84531 18.1731L3.18803 17.9669ZM2.54015 16.8904C1.84172 15.7222 2.25441 14.2214 3.47185 13.5427L3.27707 13.1933C1.86862 13.9786 1.37906 15.7278 2.19683 17.0956L2.54015 16.8904ZM3.47164 13.5428C3.90517 13.3018 4.17804 12.8501 4.17804 12.361H3.77804C3.77804 12.6999 3.58836 13.0202 3.27727 13.1932L3.47164 13.5428ZM4.17804 12.361C4.17804 11.8721 3.90535 11.4193 3.47164 11.1782L3.27727 11.5278C3.58819 11.7007 3.77804 12.0219 3.77804 12.361H4.17804ZM3.4722 11.1785C2.25341 10.4958 1.84164 8.99083 2.53918 7.82253L2.19574 7.61747C1.37915 8.98517 1.86756 10.7382 3.27672 11.5275L3.4722 11.1785ZM2.53654 7.82682L3.23968 6.71382L2.90151 6.50018L2.19837 7.61318L2.53654 7.82682ZM3.24238 6.70943C3.93279 5.55156 5.50282 5.13633 6.72999 5.81596L6.92378 5.46604C5.5147 4.68567 3.70387 5.15444 2.89882 6.50457L3.24238 6.70943ZM6.72731 5.81445C6.93637 5.93447 7.16493 5.99564 7.39734 5.99799L7.40137 5.59801C7.23762 5.59636 7.07623 5.55353 6.92646 5.46755L6.72731 5.81445ZM7.39935 5.998C8.14917 5.998 8.78386 5.40182 8.79611 4.65528L8.39617 4.64872C8.38768 5.16618 7.94174 5.598 7.39935 5.598V5.998ZM8.79614 4.65081C8.79233 4.0103 9.05413 3.39293 9.53616 2.92442L9.25737 2.63758C8.70025 3.17907 8.39166 3.8997 8.39614 4.65319L8.79614 4.65081ZM9.53573 2.92483C10.0194 2.45756 10.662 2.2 11.3485 2.2V1.8C10.5603 1.8 9.81746 2.09644 9.2578 2.63717L9.53573 2.92483ZM11.3485 2.2H12.648V1.8H11.3485V2.2ZM12.648 2.2C13.3389 2.2 14.01 2.47397 14.4893 2.94731L14.7704 2.66269C14.2147 2.11403 13.4422 1.8 12.648 1.8V2.2ZM14.4888 2.94676C14.967 3.42275 15.2299 4.07463 15.2098 4.73291L15.6096 4.74509C15.6332 3.97337 15.3256 3.21525 14.7709 2.66324L14.4888 2.94676ZM15.2098 4.74158C15.2123 4.94239 15.2795 5.16312 15.3957 5.35325L15.737 5.14475C15.654 5.00888 15.6113 4.85761 15.6097 4.73642L15.2098 4.74158ZM15.3956 5.35324C15.5883 5.66865 15.8927 5.89032 16.2516 5.98092L16.3495 5.59308C16.0904 5.52768 15.8742 5.36935 15.737 5.14476L15.3956 5.35324ZM16.254 5.9815C16.6096 6.06665 16.9857 6.02135 17.3072 5.83766L17.1088 5.49034C16.8807 5.62065 16.6097 5.65535 16.3472 5.5925L16.254 5.9815ZM17.3045 5.83919C18.5413 5.15814 20.1105 5.56959 20.8113 6.74351L21.1547 6.53849C20.3393 5.17241 18.5297 4.70786 17.1116 5.48881L17.3045 5.83919ZM20.8114 6.74375L21.4575 7.82275L21.8007 7.61725L21.1546 6.53825L20.8114 6.74375ZM21.4555 7.81933C21.4695 7.84386 21.4803 7.86484 21.4889 7.88487L21.8564 7.72713C21.8401 7.68916 21.8218 7.65414 21.8027 7.62067L21.4555 7.81933ZM21.4973 7.90222C22.1297 9.05447 21.7098 10.51 20.527 11.1768L20.7234 11.5252C22.0918 10.7539 22.5887 9.05953 21.848 7.70978L21.4973 7.90222ZM20.5282 11.1761C20.3132 11.2954 20.1363 11.4638 20.0137 11.6696L20.3573 11.8744C20.442 11.7322 20.566 11.6126 20.7222 11.5259L20.5282 11.1761ZM20.0138 11.6694C19.8257 11.9841 19.7725 12.3602 19.8682 12.7081L20.2539 12.6019C20.1878 12.3618 20.2237 12.0979 20.3572 11.8746L20.0138 11.6694ZM19.8683 12.7083C19.9659 13.0614 20.1994 13.3537 20.5244 13.5331L20.7177 13.1829C20.4847 13.0543 20.3221 12.8486 20.2538 12.6017L19.8683 12.7083ZM20.5241 13.5329C21.1081 13.8567 21.5423 14.4017 21.7153 15.0273L22.1008 14.9207C21.8984 14.1883 21.393 13.5573 20.718 13.1831L20.5241 13.5329ZM21.7153 15.0274C21.8882 15.6519 21.7938 16.3313 21.4557 16.8917L21.7983 17.0983C22.1924 16.4447 22.3033 15.6521 22.1008 14.9206L21.7153 15.0274ZM21.4572 16.8893L20.7686 17.9953L21.1082 18.2067L21.7968 17.1007L21.4572 16.8893ZM20.7672 17.9976C20.0665 19.1584 18.4971 19.5665 17.2742 18.8853L17.0796 19.2347C18.4846 20.0175 20.2941 19.5556 21.1096 18.2043L20.7672 17.9976ZM17.2738 18.885C17.0692 18.7718 16.8352 18.7108 16.6032 18.7051L16.5933 19.1049C16.7636 19.1092 16.9341 19.1542 17.0801 19.235L17.2738 18.885ZM16.5982 18.705H16.592V19.105H16.5982V18.705ZM16.592 18.705C16.2401 18.705 15.8826 18.8483 15.6218 19.0987L15.8988 19.3873C16.0859 19.2077 16.3445 19.105 16.592 19.105V18.705ZM15.6214 19.099C15.3558 19.3552 15.2083 19.6994 15.2108 20.0653L15.6108 20.0627C15.6091 19.8086 15.7105 19.5688 15.8991 19.387L15.6214 19.099ZM15.2108 20.063C15.2041 21.4154 14.0608 22.521 12.648 22.521V22.921C14.2676 22.921 15.6029 21.6506 15.6108 20.065L15.2108 20.063Z" mask="url(#path-1-outside-1)"/>
<path fill-rule="evenodd" clip-rule="evenodd" d="M12.003 10.4741C10.9245 10.4741 10.0471 11.3211 10.0471 12.3611C10.0471 13.4011 10.9245 14.2461 12.003 14.2461C13.0816 14.2461 13.959 13.4011 13.959 12.3611C13.959 11.3211 13.0816 10.4741 12.003 10.4741ZM12.0034 15.7461C10.0671 15.7461 8.49182 14.2281 8.49182 12.3611C8.49182 10.4941 10.0671 8.97412 12.0034 8.97412C13.9396 8.97412 15.5149 10.4941 15.5149 12.3611C15.5149 14.2281 13.9396 15.7461 12.0034 15.7461Z" />
</svg>
