<svg width="40" height="40" viewBox="0 0 40 40"  xmlns="http://www.w3.org/2000/svg">
<path d="M40 20C40 33.3333 33.3333 40 20 40C6.66667 40 0 33.3333 0 20C0 6.66667 6.66667 0 20 0C33.3333 0 40 6.66667 40 20Z" classname="svg_background"/>
<path d="M20 24C20.5304 24 21.0391 24.2107 21.4142 24.5858C21.7893 24.9609 22 25.4696 22 26C22 26.5304 21.7893 27.0391 21.4142 27.4142C21.0391 27.7893 20.5304 28 20 28C19.4696 28 18.9609 27.7893 18.5858 27.4142C18.2107 27.0391 18 26.5304 18 26C18 25.4696 18.2107 24.9609 18.5858 24.5858C18.9609 24.2107 19.4696 24 20 24ZM20 18C20.5304 18 21.0391 18.2107 21.4142 18.5858C21.7893 18.9609 22 19.4696 22 20C22 20.5304 21.7893 21.0391 21.4142 21.4142C21.0391 21.7893 20.5304 22 20 22C19.4696 22 18.9609 21.7893 18.5858 21.4142C18.2107 21.0391 18 20.5304 18 20C18 19.4696 18.2107 18.9609 18.5858 18.5858C18.9609 18.2107 19.4696 18 20 18ZM20 12C20.5304 12 21.0391 12.2107 21.4142 12.5858C21.7893 12.9609 22 13.4696 22 14C22 14.5304 21.7893 15.0391 21.4142 15.4142C21.0391 15.7893 20.5304 16 20 16C19.4696 16 18.9609 15.7893 18.5858 15.4142C18.2107 15.0391 18 14.5304 18 14C18 13.4696 18.2107 12.9609 18.5858 12.5858C18.9609 12.2107 19.4696 12 20 12Z" classname="svg_dots"/>
</svg>
