<svg width="32" height="32" viewBox="0 0 32 32" fill="none" xmlns="http://www.w3.org/2000/svg">
  <path d="M31.5 16C31.5 21.2563 30.1863 25.1066 27.6464 27.6464C25.1066 30.1863 21.2563 31.5 16 31.5C10.7437 31.5 6.89338 30.1863 4.35355 27.6464C1.81373 25.1066 0.5 21.2563 0.5 16C0.5 10.7437 1.81373 6.89338 4.35355 4.35355C6.89338 1.81373 10.7437 0.5 16 0.5C21.2563 0.5 25.1066 1.81373 27.6464 4.35355C30.1863 6.89338 31.5 10.7437 31.5 16Z" fill="white" stroke="#EBEBEB" />
  <path d="M12 24H9C8.73478 24 8.48043 23.8946 8.29289 23.7071C8.10536 23.5196 8 23.2652 8 23V20C8 19.7348 7.89464 19.4804 7.70711 19.2929C7.51957 19.1054 7.26522 19 7 19C6.73478 19 6.48043 19.1054 6.29289 19.2929C6.10536 19.4804 6 19.7348 6 20V23C6 23.7956 6.31607 24.5587 6.87868 25.1213C7.44129 25.6839 8.20435 26 9 26H12C12.2652 26 12.5196 25.8946 12.7071 25.7071C12.8946 25.5196 13 25.2652 13 25C13 24.7348 12.8946 24.4804 12.7071 24.2929C12.5196 24.1054 12.2652 24 12 24ZM7 13C7.26522 13 7.51957 12.8946 7.70711 12.7071C7.89464 12.5196 8 12.2652 8 12V9C8 8.73478 8.10536 8.48043 8.29289 8.29289C8.48043 8.10536 8.73478 8 9 8H12C12.2652 8 12.5196 7.89464 12.7071 7.70711C12.8946 7.51957 13 7.26522 13 7C13 6.73478 12.8946 6.48043 12.7071 6.29289C12.5196 6.10536 12.2652 6 12 6H9C8.20435 6 7.44129 6.31607 6.87868 6.87868C6.31607 7.44129 6 8.20435 6 9V12C6 12.2652 6.10536 12.5196 6.29289 12.7071C6.48043 12.8946 6.73478 13 7 13ZM23 6H20C19.7348 6 19.4804 6.10536 19.2929 6.29289C19.1054 6.48043 19 6.73478 19 7C19 7.26522 19.1054 7.51957 19.2929 7.70711C19.4804 7.89464 19.7348 8 20 8H23C23.2652 8 23.5196 8.10536 23.7071 8.29289C23.8946 8.48043 24 8.73478 24 9V12C24 12.2652 24.1054 12.5196 24.2929 12.7071C24.4804 12.8946 24.7348 13 25 13C25.2652 13 25.5196 12.8946 25.7071 12.7071C25.8946 12.5196 26 12.2652 26 12V9C26 8.20435 25.6839 7.44129 25.1213 6.87868C24.5587 6.31607 23.7956 6 23 6ZM20 16C20 15.7348 19.8946 15.4804 19.7071 15.2929C19.5196 15.1054 19.2652 15 19 15H17V13C17 12.7348 16.8946 12.4804 16.7071 12.2929C16.5196 12.1054 16.2652 12 16 12C15.7348 12 15.4804 12.1054 15.2929 12.2929C15.1054 12.4804 15 12.7348 15 13V15H13C12.7348 15 12.4804 15.1054 12.2929 15.2929C12.1054 15.4804 12 15.7348 12 16C12 16.2652 12.1054 16.5196 12.2929 16.7071C12.4804 16.8946 12.7348 17 13 17H15V19C15 19.2652 15.1054 19.5196 15.2929 19.7071C15.4804 19.8946 15.7348 20 16 20C16.2652 20 16.5196 19.8946 16.7071 19.7071C16.8946 19.5196 17 19.2652 17 19V17H19C19.2652 17 19.5196 16.8946 19.7071 16.7071C19.8946 16.5196 20 16.2652 20 16ZM25 19C24.7348 19 24.4804 19.1054 24.2929 19.2929C24.1054 19.4804 24 19.7348 24 20V23C24 23.2652 23.8946 23.5196 23.7071 23.7071C23.5196 23.8946 23.2652 24 23 24H20C19.7348 24 19.4804 24.1054 19.2929 24.2929C19.1054 24.4804 19 24.7348 19 25C19 25.2652 19.1054 25.5196 19.2929 25.7071C19.4804 25.8946 19.7348 26 20 26H23C23.7956 26 24.5587 25.6839 25.1213 25.1213C25.6839 24.5587 26 23.7956 26 23V20C26 19.7348 25.8946 19.4804 25.7071 19.2929C25.5196 19.1054 25.2652 19 25 19Z" fill="black" />
</svg>
