<svg width="20" height="22" viewBox="0 0 20 22" fill="black" xmlns="http://www.w3.org/2000/svg">
<path d="M17.5 20H6.5V6H17.5V20ZM17.5 4H6.5C5.96957 4 5.46086 4.21071 5.08579 4.58579C4.71071 4.96086 4.5 5.46957 4.5 6V20C4.5 20.5304 4.71071 21.0391 5.08579 21.4142C5.46086 21.7893 5.96957 22 6.5 22H17.5C18.0304 22 18.5391 21.7893 18.9142 21.4142C19.2893 21.0391 19.5 20.5304 19.5 20V6C19.5 5.46957 19.2893 4.96086 18.9142 4.58579C18.5391 4.21071 18.0304 4 17.5 4ZM14.5 0H2.5C1.96957 0 1.46086 0.210714 1.08579 0.585786C0.710714 0.960859 0.5 1.46957 0.5 2V16H2.5V2H14.5V0Z" />
</svg>
