<svg width="20" height="22" viewBox="0 0 20 22" fill="none" xmlns="http://www.w3.org/2000/svg">
<path d="M17.3249 8.4668C17.3249 8.4668 16.7819 15.2018 16.4669 18.0388C16.3169 19.3938 15.4799 20.1878 14.1089 20.2128C11.4999 20.2598 8.88791 20.2628 6.27991 20.2078C4.96091 20.1808 4.13791 19.3768 3.99091 18.0458C3.67391 15.1838 3.13391 8.4668 3.13391 8.4668" stroke="black" stroke-width="2" stroke-linecap="round" stroke-linejoin="round"/>
<path d="M18.7082 5.23828H1.75018" stroke="black" stroke-width="2" stroke-linecap="round" stroke-linejoin="round"/>
<path d="M15.4406 5.239C14.6556 5.239 13.9796 4.684 13.8256 3.915L13.5826 2.699C13.4326 2.138 12.9246 1.75 12.3456 1.75H8.11258C7.53358 1.75 7.02558 2.138 6.87558 2.699L6.63258 3.915C6.47858 4.684 5.80258 5.239 5.01758 5.239" stroke="black" stroke-width="2" stroke-linecap="round" stroke-linejoin="round"/>
</svg>