<svg width="24" height="24" viewBox="0 0 24 24" xmlns="http://www.w3.org/2000/svg">
<path d="M22 12C22 11.2857 21.4286 10.5714 20.7143 10.4286C17 9.85714 14.1429 7 13.5714 3.28571C13.4286 2.57143 12.7143 2 12 2C11.2857 2 10.5714 2.57143 10.4286 3.28571C9.85714 7 7 9.85714 3.28571 10.4286C2.57143 10.5714 2 11.2857 2 12C2 12.7143 2.57143 13.4286 3.28571 13.5714C7 14.1429 9.85714 17 10.4286 20.7143C10.5714 21.4286 11.2857 22 12 22C12.7143 22 13.4286 21.4286 13.5714 20.7143C14.1429 17 17 14.1429 20.7143 13.5714C21.4286 13.4286 22 12.7143 22 12Z" />
<line x1="4.59909" y1="4.14062" x2="19.3564" y2="18.898" stroke="#252525" stroke-width="6" stroke-linecap="round"/>
<line x1="3.88052" y1="3.45986" x2="19.7121" y2="19.311" stroke="#F4F4F4" stroke-width="2" stroke-linecap="round"/>
</svg>
