<svg width="34" height="34" viewBox="0 0 34 34" fill="none" xmlns="http://www.w3.org/2000/svg">
<path d="M17.8921 33.9462C8.81105 34.4304 1.13537 27.9209 0.000239482 19.3133L6.70294 19.3133C8.97321 19.3133 10.757 21.1424 10.757 23.3481C10.757 24.5316 12.0543 25.2848 13.0813 24.693L24.2165 18.2911C25.2435 17.6994 25.2435 16.2468 24.2165 15.6551L13.0813 9.30696C12.0543 8.71519 10.757 9.46835 10.757 10.6519C10.757 12.9114 8.91916 14.6867 6.70294 14.6867L-0.0538146 14.6867C1.13538 6.4019 8.27051 -1.12422e-06 16.9192 -7.46179e-07C26.757 -3.16153e-07 34.6489 8.28481 33.9462 18.1835C33.3516 26.6835 26.4327 33.462 17.8921 33.9462Z" fill="white"/>
</svg>
