<svg width="24" height="20" viewBox="0 0 24 20" fill="none" xmlns="http://www.w3.org/2000/svg">
<path d="M13.13 0C18.66 0 23.14 4.5 23.14 10C23.14 15.5 18.66 20 13.13 20C9.62 20 6.55 18.18 4.76 15.43L6.34 14.18C7.75 16.47 10.26 18 13.14 18C15.2617 18 17.2966 17.1571 18.7969 15.6569C20.2971 14.1566 21.14 12.1217 21.14 10C21.14 7.87827 20.2971 5.84344 18.7969 4.34315C17.2966 2.84285 15.2617 2 13.14 2C9.06 2 5.7 5.06 5.21 9H7.97L4.23 12.73L0.5 9H3.19C3.69 3.95 7.95 0 13.13 0ZM16.09 8.24C16.59 8.25 17 8.65 17 9.16V13.77C17 14.27 16.59 14.69 16.08 14.69H10.55C10.04 14.69 9.63 14.27 9.63 13.77V9.16C9.63 8.65 10.04 8.25 10.54 8.24V7.23C10.54 5.7 11.79 4.46 13.31 4.46C14.84 4.46 16.09 5.7 16.09 7.23V8.24ZM13.31 5.86C12.56 5.86 11.94 6.47 11.94 7.23V8.24H14.69V7.23C14.69 6.47 14.07 5.86 13.31 5.86Z" />
</svg>

