<svg width="56" height="56" viewBox="0 0 56 56" fill="none" xmlns="http://www.w3.org/2000/svg">
<mask id="mask0_101:3" style="mask-type:alpha" maskUnits="userSpaceOnUse" x="0" y="0" width="56" height="56">
<rect width="56" height="56" fill="#FF0000"/>
</mask>
<g mask="url(#mask0_101:3)">
<path d="M48.7841 16C55.4058 27.4692 51.4687 42.1628 39.9995 48.7846C28.5302 55.4063 13.8366 51.4692 7.21484 40C0.593079 28.5307 4.53022 13.8371 15.9994 7.21536C27.4687 0.593597 42.1623 4.53074 48.7841 16ZM7.7533 39.6891C14.1885 50.8352 28.5424 54.6814 39.6886 48.2461C50.8347 41.8109 54.6808 27.457 48.2456 16.3108C41.8104 5.1647 27.4565 1.31859 16.3103 7.75382C5.16418 14.1891 1.31807 28.5429 7.7533 39.6891Z" fill="url(#paint0_linear_101:3)"/>
<path d="M48.7841 16C54.2556 25.4769 49.3546 38.5011 37.8854 45.1229C26.4161 51.7446 12.6863 49.4769 7.21484 40C1.74334 30.523 6.6441 17.4985 18.1133 10.8767C29.5826 4.25495 43.3126 6.52305 48.7841 16ZM7.7533 39.6891C13.0383 48.8429 26.4283 51.0196 37.5745 44.5844C48.7206 38.1492 53.5306 25.4647 48.2456 16.3108C42.9606 7.157 29.5704 4.97994 18.4242 11.4152C7.27806 17.8504 2.46833 30.5352 7.7533 39.6891Z" fill="url(#paint1_linear_101:3)"/>
<path d="M48.7841 16C50.1519 18.3692 40.1827 25.8481 30.1135 31.6616C20.0443 37.4751 8.58272 42.3692 7.21484 40C5.84696 37.6307 15.8163 30.152 25.8855 24.3385C35.9547 18.525 47.3851 13.5769 48.7841 16ZM7.7533 39.6891C8.62377 41.1968 17.8488 38.0247 29.8026 31.1231C41.7565 24.2216 49.085 17.7647 48.2456 16.3108C47.4062 14.857 38.1502 17.9754 26.1964 24.877C14.2425 31.7785 6.88284 38.1814 7.7533 39.6891Z" fill="url(#paint2_linear_101:3)"/>
<path d="M48.7841 16C52.2659 22.0307 45.7795 32.3089 34.3103 38.9307C22.8411 45.5524 10.6967 46.0307 7.21484 40C3.73298 33.9692 10.1882 23.6371 21.6575 17.0153C33.1267 10.3935 45.3022 9.9692 48.7841 16ZM7.7533 39.6891C11.0797 45.4506 22.8533 44.8275 33.9994 38.3922C45.1456 31.957 51.5409 22.0185 48.2456 16.3108C44.9503 10.6032 33.1145 11.1185 21.9683 17.5538C10.8222 23.989 4.42688 33.9276 7.7533 39.6891Z" fill="url(#paint3_linear_101:3)"/>
<path d="M45.1761 18.083C51.7978 29.5523 49.4764 43.3131 39.9995 48.7846C30.5225 54.2561 17.4978 49.3554 10.8761 37.8862C4.25432 26.4169 6.52253 12.6869 15.9994 7.21536C25.4764 1.74386 38.5543 6.61381 45.1761 18.083ZM11.4145 37.5753C17.8498 48.7214 30.5347 53.5311 39.6886 48.2461C48.8424 42.9611 51.019 29.5712 44.5838 18.425C38.1485 7.27886 25.4642 2.46885 16.3103 7.75382C7.15649 13.0388 4.97931 26.4291 11.4145 37.5753Z" fill="url(#paint4_linear_101:3)"/>
<path d="M31.7147 25.8549C37.5282 35.9242 42.4225 47.3856 39.9995 48.7846C37.5764 50.1835 30.1513 40.1832 24.3378 30.114C18.5244 20.0448 13.6302 8.58324 15.9994 7.21536C18.3687 5.84748 25.9013 15.7857 31.7147 25.8549ZM24.8763 29.8031C31.7778 41.757 38.1809 49.1166 39.6886 48.2461C41.1963 47.3757 38.024 38.1508 31.1224 26.1969C24.2209 14.2431 17.7642 6.91444 16.3103 7.75382C14.8565 8.5932 17.9747 17.8493 24.8763 29.8031Z" fill="url(#paint5_linear_101:3)"/>
<path d="M38.9841 21.658C45.6059 33.1272 46.0302 45.3027 39.9995 48.7846C33.9687 52.2664 23.6905 45.78 17.0687 34.3108C10.447 22.8416 9.96868 10.6972 15.9994 7.21536C22.0302 3.73349 32.3623 10.1887 38.9841 21.658ZM17.6072 33.9999C24.0424 45.1461 33.927 51.5725 39.6886 48.2461C45.4501 44.9197 44.8809 33.115 38.4457 21.9689C32.0104 10.8227 22.0719 4.42737 16.3642 7.7227C10.6565 11.018 11.172 22.8538 17.6072 33.9999Z" fill="url(#paint6_linear_101:3)"/>
<circle cx="42" cy="13.9999" r="8" fill="url(#paint7_linear_101:3)"/>
</g>
<defs>
<linearGradient id="paint0_linear_101:3" x1="17.0687" y1="34.3107" x2="38.9841" y2="21.6579" gradientUnits="userSpaceOnUse">
<stop stop-color="white" stop-opacity="0.33"/>
<stop offset="1" stop-color="white" stop-opacity="0.12"/>
</linearGradient>
<linearGradient id="paint1_linear_101:3" x1="17.0687" y1="34.3107" x2="38.9841" y2="21.6579" gradientUnits="userSpaceOnUse">
<stop stop-color="white" stop-opacity="0.33"/>
<stop offset="1" stop-color="white" stop-opacity="0.12"/>
</linearGradient>
<linearGradient id="paint2_linear_101:3" x1="17.0687" y1="34.3107" x2="38.9841" y2="21.6579" gradientUnits="userSpaceOnUse">
<stop stop-color="white" stop-opacity="0.33"/>
<stop offset="1" stop-color="white" stop-opacity="0.12"/>
</linearGradient>
<linearGradient id="paint3_linear_101:3" x1="17.0687" y1="34.3107" x2="38.9841" y2="21.6579" gradientUnits="userSpaceOnUse">
<stop stop-color="white" stop-opacity="0.33"/>
<stop offset="1" stop-color="white" stop-opacity="0.12"/>
</linearGradient>
<linearGradient id="paint4_linear_101:3" x1="17.0687" y1="34.3107" x2="38.9841" y2="21.6579" gradientUnits="userSpaceOnUse">
<stop stop-color="white" stop-opacity="0.33"/>
<stop offset="1" stop-color="white" stop-opacity="0.12"/>
</linearGradient>
<linearGradient id="paint5_linear_101:3" x1="17.0687" y1="34.3107" x2="38.9841" y2="21.6579" gradientUnits="userSpaceOnUse">
<stop stop-color="white" stop-opacity="0.33"/>
<stop offset="1" stop-color="white" stop-opacity="0.12"/>
</linearGradient>
<linearGradient id="paint6_linear_101:3" x1="17.0687" y1="34.3107" x2="38.9841" y2="21.6579" gradientUnits="userSpaceOnUse">
<stop stop-color="white" stop-opacity="0.33"/>
<stop offset="1" stop-color="white" stop-opacity="0.12"/>
</linearGradient>
<linearGradient id="paint7_linear_101:3" x1="50" y1="5.99988" x2="34" y2="21.9999" gradientUnits="userSpaceOnUse">
<stop stop-color="#DDFF80"/>
<stop offset="1" stop-color="#00FF94"/>
</linearGradient>
</defs>
</svg>
