<svg width="56" height="56" viewBox="0 0 56 56" fill="none" xmlns="http://www.w3.org/2000/svg">
<mask id="mask0_1753:3886" style="mask-type:alpha" maskUnits="userSpaceOnUse" x="0" y="0" width="56" height="56">
<rect width="56" height="56" fill="#FF0000" fill-opacity="0.6"/>
</mask>
<g mask="url(#mask0_1753:3886)">
<path d="M48.7841 16.0001C55.4058 27.4693 51.4687 42.1629 39.9995 48.7847C28.5302 55.4064 13.8366 51.4693 7.21484 40.0001C0.59308 28.5308 4.53022 13.8372 15.9995 7.21545C27.4687 0.593686 42.1623 4.53083 48.7841 16.0001ZM7.7533 39.6892C14.1885 50.8353 28.5424 54.6814 39.6886 48.2462C50.8347 41.811 54.6808 27.4571 48.2456 16.3109C41.8104 5.16479 27.4565 1.31868 16.3103 7.75391C5.16418 14.1891 1.31807 28.543 7.7533 39.6892Z" fill="url(#paint0_linear_1753:3886)"/>
<path d="M48.7838 16C54.2553 25.4769 49.3544 38.5013 37.8852 45.123C26.416 51.7448 12.6861 49.4769 7.21457 40C1.74307 30.5231 6.64394 17.4987 18.1132 10.8769C29.5824 4.25514 43.3123 6.52305 48.7838 16ZM7.75304 39.6891C13.038 48.8429 26.4282 51.0198 37.5743 44.5846C48.7205 38.1493 53.5303 25.4647 48.2453 16.3109C42.9604 7.15701 29.5702 4.98013 18.4241 11.4154C7.2779 17.8506 2.46806 30.5353 7.75304 39.6891Z" fill="url(#paint1_linear_1753:3886)"/>
<path d="M48.7843 16.0001C50.1522 18.3693 40.1829 25.8481 30.1137 31.6616C20.0445 37.4751 8.58299 42.3693 7.21511 40.0001C5.84724 37.6309 15.8165 30.152 25.8857 24.3385C35.955 18.5251 47.3854 13.577 48.7843 16.0001ZM7.75357 39.6892C8.62404 41.1969 17.849 38.0247 29.8028 31.1232C41.7567 24.2216 49.0852 17.7648 48.2459 16.311C47.4065 14.8571 38.1505 17.9754 26.1966 24.877C14.2428 31.7786 6.88311 38.1815 7.75357 39.6892Z" fill="url(#paint2_linear_1753:3886)"/>
<path d="M48.7837 15.9999C52.2656 22.0307 45.7792 32.3089 34.31 38.9307C22.8408 45.5524 10.6964 46.0307 7.21451 39.9999C3.73264 33.9691 10.1879 23.637 21.6571 17.0153C33.1264 10.3935 45.3019 9.96913 48.7837 15.9999ZM7.75297 39.689C11.0794 45.4506 22.853 44.8274 33.9991 38.3922C45.1453 31.957 51.5406 22.0185 48.2453 16.3108C44.9499 10.6031 33.1142 11.1185 21.968 17.5537C10.8219 23.989 4.42655 33.9275 7.75297 39.689Z" fill="url(#paint3_linear_1753:3886)"/>
<path d="M45.176 18.0832C51.7977 29.5524 49.476 43.3134 39.999 48.7849C30.5221 54.2564 17.4977 49.3555 10.876 37.8863C4.25421 26.4171 6.52213 12.6872 15.999 7.21567C25.476 1.74416 38.5542 6.61395 45.176 18.0832ZM11.4144 37.5754C17.8497 48.7216 30.5343 53.5314 39.6882 48.2464C48.842 42.9615 51.0189 29.5713 44.5837 18.4251C38.1484 7.27899 25.4638 2.46915 16.3099 7.75413C7.15608 13.0391 4.9792 26.4293 11.4144 37.5754Z" fill="url(#paint4_linear_1753:3886)"/>
<path d="M31.7148 25.8552C37.5283 35.9245 42.4225 47.386 39.9994 48.7849C37.5764 50.1839 30.1514 40.1835 24.3379 30.1143C18.5244 20.0451 13.6302 8.58359 15.9994 7.21572C18.3687 5.84784 25.9013 15.786 31.7148 25.8552ZM24.8764 29.8034C31.7779 41.7573 38.1809 49.1169 39.6885 48.2465C41.1962 47.376 38.0241 38.1511 31.1225 26.1972C24.2209 14.2434 17.7642 6.9148 16.3103 7.75418C14.8565 8.59356 17.9748 17.8496 24.8764 29.8034Z" fill="url(#paint5_linear_1753:3886)"/>
<path d="M38.9837 21.6582C45.6055 33.1275 46.0299 45.303 39.9991 48.7848C33.9684 52.2667 23.6901 45.7803 17.0684 34.3111C10.4466 22.8419 9.96836 10.6975 15.9991 7.2156C22.0299 3.73374 32.362 10.189 38.9837 21.6582ZM17.6068 34.0002C24.0421 45.1464 33.9267 51.5728 39.6882 48.2464C45.4498 44.9199 44.8805 33.1153 38.4453 21.9691C32.01 10.823 22.0715 4.42764 16.3639 7.72298C10.6562 11.0183 11.1716 22.8541 17.6068 34.0002Z" fill="url(#paint6_linear_1753:3886)"/>
<circle cx="42" cy="14" r="8" fill="url(#paint7_linear_1753:3886)"/>
</g>
<defs>
<linearGradient id="paint0_linear_1753:3886" x1="7.21484" y1="40.0001" x2="48.7841" y2="16.0001" gradientUnits="userSpaceOnUse">
<stop stop-color="white" stop-opacity="0.33"/>
<stop offset="1" stop-color="white" stop-opacity="0.12"/>
</linearGradient>
<linearGradient id="paint1_linear_1753:3886" x1="7.21457" y1="40" x2="48.7838" y2="16" gradientUnits="userSpaceOnUse">
<stop stop-color="white" stop-opacity="0.33"/>
<stop offset="1" stop-color="white" stop-opacity="0.12"/>
</linearGradient>
<linearGradient id="paint2_linear_1753:3886" x1="7.21511" y1="40.0001" x2="48.7843" y2="16.0001" gradientUnits="userSpaceOnUse">
<stop stop-color="white" stop-opacity="0.33"/>
<stop offset="1" stop-color="white" stop-opacity="0.12"/>
</linearGradient>
<linearGradient id="paint3_linear_1753:3886" x1="7.19896" y1="39.973" x2="48.7682" y2="15.973" gradientUnits="userSpaceOnUse">
<stop stop-color="white" stop-opacity="0.33"/>
<stop offset="1" stop-color="white" stop-opacity="0.12"/>
</linearGradient>
<linearGradient id="paint4_linear_1753:3886" x1="10.876" y1="37.8863" x2="45.176" y2="18.0832" gradientUnits="userSpaceOnUse">
<stop stop-color="white" stop-opacity="0.33"/>
<stop offset="1" stop-color="white" stop-opacity="0.12"/>
</linearGradient>
<linearGradient id="paint5_linear_1753:3886" x1="24.3379" y1="30.1143" x2="31.7148" y2="25.8552" gradientUnits="userSpaceOnUse">
<stop stop-color="white" stop-opacity="0.33"/>
<stop offset="1" stop-color="white" stop-opacity="0.12"/>
</linearGradient>
<linearGradient id="paint6_linear_1753:3886" x1="17.0684" y1="34.3111" x2="38.9837" y2="21.6582" gradientUnits="userSpaceOnUse">
<stop stop-color="white" stop-opacity="0.33"/>
<stop offset="1" stop-color="white" stop-opacity="0.12"/>
</linearGradient>
<linearGradient id="paint7_linear_1753:3886" x1="50" y1="6" x2="34" y2="22" gradientUnits="userSpaceOnUse">
<stop stop-color="#DDFF80"/>
<stop offset="1" stop-color="#00FF94"/>
</linearGradient>
</defs>
</svg>
