<svg width="12" height="15" viewBox="0 0 12 15" fill="none" xmlns="http://www.w3.org/2000/svg">
  <path d="M5.99984 11.3327C6.35346 11.3327 6.6926 11.1922 6.94265 10.9422C7.19269 10.6921 7.33317 10.353 7.33317 9.99935C7.33317 9.64573 7.19269 9.30659 6.94265 9.05654C6.6926 8.80649 6.35346 8.66602 5.99984 8.66602C5.64621 8.66602 5.30708 8.80649 5.05703 9.05654C4.80698 9.30659 4.6665 9.64573 4.6665 9.99935C4.6665 10.353 4.80698 10.6921 5.05703 10.9422C5.30708 11.1922 5.64621 11.3327 5.99984 11.3327ZM9.99984 5.33268C10.3535 5.33268 10.6926 5.47316 10.9426 5.72321C11.1927 5.97326 11.3332 6.31239 11.3332 6.66602V13.3327C11.3332 13.6863 11.1927 14.0254 10.9426 14.2755C10.6926 14.5255 10.3535 14.666 9.99984 14.666L1.99984 14.666C1.64622 14.666 1.30708 14.5255 1.05703 14.2755C0.80698 14.0254 0.666504 13.6863 0.666504 13.3327L0.666504 6.66602C0.666504 6.31239 0.80698 5.97326 1.05703 5.72321C1.30708 5.47316 1.64622 5.33268 1.99984 5.33268H2.6665L2.6665 3.99935C2.6665 3.11529 3.01769 2.26745 3.64281 1.64233C4.26794 1.01721 5.11578 0.666016 5.99984 0.666016C6.43758 0.666016 6.87103 0.752235 7.27545 0.919751C7.67987 1.08727 8.04733 1.3328 8.35686 1.64233C8.66639 1.95185 8.91192 2.31932 9.07944 2.72374C9.24695 3.12816 9.33317 3.56161 9.33317 3.99935V5.33268H9.99984ZM5.99984 1.99935C5.4694 1.99935 4.9607 2.21006 4.58562 2.58514C4.21055 2.96021 3.99984 3.46892 3.99984 3.99935L3.99984 5.33268H7.99984V3.99935C7.99984 3.46892 7.78912 2.96021 7.41405 2.58514C7.03898 2.21006 6.53027 1.99935 5.99984 1.99935Z" fill="white" />
</svg>
