<svg width="40" height="40" viewBox="0 0 52 52" fill="none" xmlns="http://www.w3.org/2000/svg">
<g filter="url(#filter0_d)">
<path d="M42 24C42 34.6667 36.6667 40 26 40C15.3333 40 10 34.6667 10 24C10 13.3333 15.3333 8 26 8C36.6667 8 42 13.3333 42 24Z" fill="white"/>
</g>
<path d="M36 24C36 23.2857 35.4286 22.5714 34.7143 22.4286C31 21.8571 28.1429 19 27.5714 15.2857C27.4286 14.5714 26.7143 14 26 14C25.2857 14 24.5714 14.5714 24.4286 15.2857C23.8571 19 21 21.8571 17.2857 22.4286C16.5714 22.5714 16 23.2857 16 24C16 24.7143 16.5714 25.4286 17.2857 25.5714C21 26.1429 23.8571 29 24.4286 32.7143C24.5714 33.4286 25.2857 34 26 34C26.7143 34 27.4286 33.4286 27.5714 32.7143C28.1429 29 31 26.1429 34.7143 25.5714C35.4286 25.4286 36 24.7143 36 24Z" fill="black"/>
<defs>
<filter id="filter0_d" x="0" y="0" width="52" height="52" filterUnits="userSpaceOnUse" color-interpolation-filters="sRGB">
<feFlood flood-opacity="0" result="BackgroundImageFix"/>
<feColorMatrix in="SourceAlpha" type="matrix" values="0 0 0 0 0 0 0 0 0 0 0 0 0 0 0 0 0 0 127 0"/>
<feOffset dy="2"/>
<feGaussianBlur stdDeviation="5"/>
<feColorMatrix type="matrix" values="0 0 0 0 0 0 0 0 0 0 0 0 0 0 0 0 0 0 0.1 0"/>
<feBlend mode="normal" in2="BackgroundImageFix" result="effect1_dropShadow"/>
<feBlend mode="normal" in="SourceGraphic" in2="effect1_dropShadow" result="shape"/>
</filter>
</defs>
</svg>
