<svg width="32" height="32" viewBox="0 0 32 32" fill="none" xmlns="http://www.w3.org/2000/svg">
  <path d="M31.5 16C31.5 21.2563 30.1863 25.1066 27.6464 27.6464C25.1066 30.1863 21.2563 31.5 16 31.5C10.7437 31.5 6.89338 30.1863 4.35355 27.6464C1.81373 25.1066 0.5 21.2563 0.5 16C0.5 10.7437 1.81373 6.89338 4.35355 4.35355C6.89338 1.81373 10.7437 0.5 16 0.5C21.2563 0.5 25.1066 1.81373 27.6464 4.35355C30.1863 6.89338 31.5 10.7437 31.5 16Z" fill="white" stroke="#EBEBEB" />
  <path d="M26 16C26 15.2857 25.4286 14.5714 24.7143 14.4286C21 13.8571 18.1429 11 17.5714 7.28571C17.4286 6.57143 16.7143 6 16 6C15.2857 6 14.5714 6.57143 14.4286 7.28571C13.8571 11 11 13.8571 7.28571 14.4286C6.57143 14.5714 6 15.2857 6 16C6 16.7143 6.57143 17.4286 7.28571 17.5714C11 18.1429 13.8571 21 14.4286 24.7143C14.5714 25.4286 15.2857 26 16 26C16.7143 26 17.4286 25.4286 17.5714 24.7143C18.1429 21 21 18.1429 24.7143 17.5714C25.4286 17.4286 26 16.7143 26 16Z" fill="black" />
</svg>
