<svg width="206" height="38" viewBox="0 0 206 38" fill="none" xmlns="http://www.w3.org/2000/svg">
<path fill-rule="evenodd" clip-rule="evenodd" d="M16 32.9962V33H16.5H98.2541C99.2187 33 100.151 33.3486 100.879 33.9816L104.188 36.8588C104.94 37.5132 106.06 37.5132 106.812 36.8588L110.686 33.4908C111.05 33.1743 111.516 33 111.998 33H189.5H190V32.9962C200.667 32.8308 206 27.3321 206 16.5C206 5.66795 200.667 0.169231 190 0.00384638V0H189.5H16.5H16V0.00384638C5.33333 0.169231 0 5.66795 0 16.5C0 27.3321 5.33333 32.8308 16 32.9962Z" fill="white"/>
</svg>
