<svg width="32" height="32" viewBox="0 0 32 32" fill="none" xmlns="http://www.w3.org/2000/svg">
<path d="M32 16C32 26.6667 26.6667 32 16 32C5.33333 32 0 26.6667 0 16C0 5.33333 5.33333 0 16 0C26.6667 0 32 5.33333 32 16Z" fill="#1552EF"/>
<path d="M15.0465 10.0051V8.98768C15.0465 8.7306 15.1477 8.48406 15.3278 8.30228C15.5079 8.1205 15.7521 8.01838 16.0068 8.01838C16.2615 8.01838 16.5057 8.1205 16.6858 8.30228C16.8659 8.48406 16.9671 8.7306 16.9671 8.98768V9.93635C17.7255 9.99161 18.4473 10.2872 19.0294 10.781C19.6115 11.2748 20.0243 11.9415 20.2089 12.6861C20.2417 12.8337 20.2158 12.9884 20.1369 13.1169C20.0579 13.2455 19.9322 13.3376 19.7866 13.3736H19.1464C18.9404 13.3725 18.739 13.3125 18.5654 13.2006C18.3918 13.0886 18.2533 12.9293 18.1657 12.7411C17.9498 12.3643 17.6304 12.0586 17.246 11.8609C16.8617 11.6633 16.429 11.5822 16 11.6275C14.6379 11.6275 13.8207 12.4799 13.8207 13.2498C13.8207 14.0198 14.4608 14.4735 15.8229 14.8172L17.185 15.1197C19.5414 15.6284 20.5358 16.6321 20.5358 18.3782C20.5216 19.3169 20.145 20.2129 19.486 20.8755C18.8271 21.538 17.938 21.9147 17.0079 21.9254V23.094C17.0079 23.3511 16.9068 23.5977 16.7267 23.7794C16.5466 23.9612 16.3024 24.0633 16.0477 24.0633C15.793 24.0633 15.5487 23.9612 15.3687 23.7794C15.1886 23.5977 15.0874 23.3511 15.0874 23.094V21.9391C14.2649 21.9265 13.4698 21.6389 12.8265 21.1215C12.1832 20.604 11.7281 19.8858 11.5323 19.0794C11.5205 19.0171 11.521 18.953 11.5338 18.8909C11.5466 18.8288 11.5714 18.7698 11.6069 18.7174C11.6423 18.665 11.6877 18.6202 11.7403 18.5856C11.793 18.551 11.8519 18.5272 11.9137 18.5157H12.7174C12.8918 18.517 13.0624 18.568 13.2094 18.6629C13.3564 18.7577 13.4738 18.8926 13.5482 19.0519C13.7994 19.4717 14.1625 19.8117 14.5961 20.0329C15.0297 20.2542 15.5162 20.3478 16 20.303C17.3621 20.303 18.4109 19.4781 18.4109 18.6394C18.4109 17.8007 17.8116 17.3058 16.3541 16.962L14.8558 16.6046C12.7174 16.1509 11.7094 15.0647 11.7094 13.4011C11.7457 12.5168 12.1082 11.6782 12.7256 11.0499C13.343 10.4216 14.1709 10.0489 15.0465 10.0051ZM4 15.9996C4.00156 13.4595 4.79596 10.9845 6.27037 8.92614C7.74478 6.86774 9.82424 5.3306 12.2134 4.53303C12.3001 4.50208 12.393 4.49269 12.484 4.50566C12.5751 4.51864 12.6618 4.55359 12.7366 4.60756C12.8115 4.66153 12.8723 4.73292 12.914 4.81569C12.9557 4.89845 12.977 4.99014 12.9762 5.08299V5.39922C12.9757 5.65322 12.9003 5.90133 12.7596 6.11192C12.6189 6.32251 12.4193 6.48603 12.1862 6.58162C10.3332 7.33658 8.74598 8.63327 7.62831 10.3053C6.51063 11.9772 5.91347 13.9482 5.91347 15.9652C5.91347 17.9823 6.51063 19.9532 7.62831 21.6252C8.74598 23.2972 10.3332 24.5939 12.1862 25.3489C12.4204 25.4469 12.6205 25.6129 12.7611 25.8258C12.9018 26.0388 12.9766 26.2891 12.9762 26.545V26.8337C12.9762 26.9978 12.9116 27.1552 12.7966 27.2712C12.6817 27.3873 12.5258 27.4524 12.3632 27.4524H12.1725C9.79321 26.6486 7.72422 25.1105 6.25778 23.0554C4.79134 21.0004 4.00156 18.5323 4 15.9996ZM28 15.9996C28.0022 18.5329 27.2158 21.0029 25.7517 23.0605C24.2877 25.1181 22.2201 26.6592 19.8411 27.4662C19.7454 27.4987 19.6434 27.508 19.5435 27.4931C19.4436 27.4783 19.3486 27.4398 19.2662 27.3808C19.1839 27.3218 19.1165 27.244 19.0697 27.1537C19.0228 27.0634 18.9978 26.9632 18.9966 26.8612V26.6275C19.0035 26.3662 19.084 26.1123 19.2288 25.8956C19.3735 25.6789 19.5765 25.5083 19.8138 25.4039C21.6626 24.6467 23.2455 23.3499 24.3599 21.6795C25.4744 20.0091 26.0697 18.041 26.0697 16.0271C26.0697 14.0132 25.4744 12.0451 24.3599 10.3747C23.2455 8.7043 21.6626 7.40753 19.8138 6.65036C19.5719 6.54698 19.3647 6.37516 19.2173 6.1556C19.0698 5.93605 18.9885 5.67814 18.983 5.41296V5.20673C18.983 4.84926 19.269 4.56053 19.6232 4.56053H19.8275C22.2046 5.36366 24.272 6.89965 25.7382 8.95195C27.2045 11.0042 27.9956 13.4693 28 15.9996Z" fill="white"/>
</svg>
