<svg width="32" height="33" viewBox="0 0 32 33" fill="none" xmlns="http://www.w3.org/2000/svg">
    <path d="M31.5 16.5C31.5 21.7563 30.1863 25.6066 27.6464 28.1464C25.1066 30.6863 21.2563 32 16 32C10.7437 32 6.89338 30.6863 4.35355 28.1464C1.81373 25.6066 0.5 21.7563 0.5 16.5C0.5 11.2437 1.81373 7.39338 4.35355 4.85355C6.89338 2.31373 10.7437 1 16 1C21.2563 1 25.1066 2.31373 27.6464 4.85355C30.1863 7.39338 31.5 11.2437 31.5 16.5Z" />
    <path d="M14 22.5L8 16.5L14 10.5" stroke="black" stroke-width="2" stroke-linecap="round" stroke-linejoin="round"/>
    <path d="M9 16.5L24 16.5" stroke="black" stroke-width="2" stroke-linecap="round" stroke-linejoin="round"/>
</svg>