<svg width="1680" height="1578" viewBox="0 0 1680 1578" fill="none" xmlns="http://www.w3.org/2000/svg">
<path opacity="0.0526316" d="M1229.75 1307.52C1300.93 1278.86 1438.23 1163.08 1417.91 929.254C1392.51 636.969 1163.61 465.225 1094.31 191.86C1043.16 -9.90269 1022.14 -520.854 1257.61 -748.327" stroke="white" stroke-opacity="0.08"/>
<path opacity="0.105263" d="M1093.76 1318.17C1167.55 1297.1 1316.19 1196.31 1320.43 961.641C1325.72 668.302 1116.03 473.572 1075.68 194.462C1045.9 -11.5428 1078.41 -521.892 1336.36 -723.507" stroke="white" stroke-opacity="0.08"/>
<path opacity="0.157895" d="M958.975 1317.62C1034.57 1304.39 1192.93 1219.68 1221.67 986.742C1257.6 695.565 1069.41 479.982 1058.46 198.183C1050.38 -9.80555 1136.05 -513.961 1413.66 -687.508" stroke="white" stroke-opacity="0.08"/>
<path opacity="0.210526" d="M826.554 1306.07C903.113 1300.81 1069.46 1233.13 1122.4 1004.47C1188.57 718.638 1023.94 484.566 1042.51 203.166C1056.21 -4.52827 1194.11 -496.967 1488.34 -640.545" stroke="white" stroke-opacity="0.08"/>
<path opacity="0.263158" d="M697.634 1283.82C774.323 1286.6 946.839 1236.67 1023.38 1014.79C1119.07 737.449 979.811 487.451 1027.69 209.533C1063.03 4.4086 1251.65 -470.918 1559.28 -582.953" stroke="white" stroke-opacity="0.08"/>
<path opacity="0.315789" d="M573.319 1251.31C649.299 1262.08 826.088 1230.46 925.407 1017.8C1049.55 751.976 937.195 488.792 1013.86 217.401C1070.45 17.0942 1307.72 -435.912 1625.37 -515.178" stroke="white" stroke-opacity="0.08"/>
<path opacity="0.368421" d="M454.652 1209.05C529.089 1227.71 708.215 1214.74 829.218 1013.63C980.472 762.24 896.238 488.752 1000.85 226.861C1078.06 33.5666 1361.39 -392.157 1685.59 -437.784" stroke="white" stroke-opacity="0.08"/>
<path opacity="0.421053" d="M342.624 1157.71C414.704 1184.05 594.204 1189.87 735.566 1002.51C912.269 768.308 857.084 487.513 988.499 237.993C1085.49 53.8277 1411.77 -339.948 1738.96 -351.437" stroke="white" stroke-opacity="0.08"/>
<path opacity="0.473684" d="M238.149 1098.02C307.081 1131.75 484.988 1156.31 645.161 984.745C845.377 770.295 819.845 485.27 976.623 250.853C1092.34 77.8357 1457.98 -279.678 1784.58 -256.903" stroke="white" stroke-opacity="0.08"/>
<path opacity="0.526316" d="M142.054 1030.82C207.083 1071.57 381.449 1114.59 558.677 960.709C780.213 768.362 784.613 482.229 965.035 265.484C1098.2 105.51 1499.21 -211.825 1821.65 -155.035" stroke="white" stroke-opacity="0.08"/>
<path opacity="0.578947" d="M55.0759 957.022C115.49 1004.34 284.403 1065.35 476.745 930.843C717.173 762.707 751.459 478.602 953.548 281.903C1102.71 136.725 1534.69 -136.954 1849.42 -46.7729" stroke="white" stroke-opacity="0.08"/>
<path opacity="0.631579" d="M-22.1377 877.62C32.9991 930.995 194.61 1009.33 399.958 895.661C656.644 753.577 720.439 474.612 941.982 300.115C1105.5 171.324 1563.73 -55.7013 1867.3 66.8843" stroke="white" stroke-opacity="0.08"/>
<path opacity="0.684211" d="M-89.0564 793.664C-39.8009 852.51 112.736 947.307 328.841 855.727C598.973 741.253 691.578 470.484 930.147 320.101C1106.23 209.107 1585.68 31.2234 1874.78 184.87" stroke="white" stroke-opacity="0.08"/>
<path opacity="0.736842" d="M-145.267 706.255C-102.433 769.927 39.3601 880.15 263.854 811.661C544.471 726.05 664.872 466.445 917.854 341.822C1104.57 249.842 1599.99 123.049 1871.45 306.073" stroke="white" stroke-opacity="0.08"/>
<path opacity="0.789474" d="M-190.459 616.531C-154.514 684.332 -25.0196 808.771 205.404 764.124C493.432 708.314 640.31 462.716 904.932 365.221C1100.24 293.262 1606.2 218.948 1857.04 429.345" stroke="white" stroke-opacity="0.08"/>
<path opacity="0.842105" d="M-224.456 525.656C-195.795 596.843 -80.0176 734.137 153.81 713.82C446.095 688.423 617.84 459.524 891.204 390.222C1092.97 339.073 1603.92 318.053 1831.39 553.518" stroke="white" stroke-opacity="0.08"/>
<path opacity="0.894737" d="M-247.197 434.808C-226.135 508.601 -125.342 657.245 109.328 661.48C402.667 666.775 597.397 457.081 876.507 416.734C1082.51 386.955 1592.86 419.46 1794.48 677.412" stroke="white" stroke-opacity="0.08"/>
<path opacity="0.947368" d="M-258.747 345.162C-245.514 420.752 -160.811 579.118 72.1314 607.86C363.309 643.787 578.892 455.598 860.691 444.647C1068.68 436.564 1572.84 522.236 1746.38 799.85" stroke="white" stroke-opacity="0.08"/>
<path d="M-259.291 257.883C-254.031 334.442 -186.346 500.794 42.3155 553.727C328.143 619.895 562.215 455.271 843.615 473.835C1051.31 487.538 1543.75 625.439 1687.33 919.673" stroke="white" stroke-opacity="0.08"/>
</svg>
